<svg width="16" height="15" viewBox="0 0 16 15" fill="none" xmlns="http://www.w3.org/2000/svg">
<path d="M8.22487 0.278072C9.87492 0.278072 11.5225 0.291477 13.1725 0.27271C14.2327 0.259305 15.288 1.10382 15.4448 2.42288C15.4572 2.51672 15.4547 2.61592 15.4547 2.70975C15.4547 4.98057 15.4547 7.25408 15.4547 9.5249C15.4547 10.7689 14.6011 11.8011 13.4562 11.9512C13.3492 11.9646 13.2397 11.9593 13.1327 11.9593C10.9376 11.9593 8.74502 11.9593 6.54994 11.9593C6.42301 11.9593 6.33093 11.9968 6.24133 12.0987C5.57434 12.8628 4.90487 13.6188 4.23539 14.3802C4.18064 14.4419 4.12589 14.5062 4.06864 14.5652C3.91434 14.7234 3.73515 14.7743 3.53854 14.6805C3.3469 14.5893 3.25731 14.4204 3.25731 14.1979C3.25731 13.5464 3.25731 12.8923 3.25731 12.2408C3.25731 12.071 3.17684 11.9771 3.0159 11.9593C2.03284 11.852 1.19911 11.0102 1.02987 9.95386C1.00747 9.81713 1 9.68308 1 9.54634C1 7.2648 1 4.98325 1 2.70171C0.997516 1.35584 2.00297 0.280753 3.24984 0.278072C4.90736 0.278072 6.56736 0.278072 8.22487 0.278072ZM4.19557 12.9003C4.21299 12.911 4.23041 12.9217 4.24783 12.9325C4.2777 12.8869 4.30259 12.8386 4.33743 12.7984C4.80532 12.2649 5.27569 11.7341 5.74109 11.1979C5.88295 11.0343 6.03974 10.9619 6.2488 10.9619C8.50859 10.9673 10.7684 10.9646 13.0282 10.9646C13.1875 10.9646 13.3492 10.9539 13.5035 10.9137C14.1406 10.7474 14.5289 10.1683 14.5314 9.38548C14.5314 7.2085 14.5314 5.03419 14.5314 2.85721C14.5314 2.69903 14.5189 2.54353 14.4866 2.39071C14.3422 1.72046 13.8146 1.27541 13.1327 1.27273C9.86247 1.26737 6.59225 1.27273 3.32202 1.27273C3.0159 1.27273 2.7272 1.35584 2.47584 1.55692C2.07017 1.88132 1.92085 2.32905 1.92085 2.85453C1.92085 4.97521 1.92085 7.0959 1.92085 9.21658C1.92085 9.3694 1.92582 9.51953 1.94076 9.66967C2.00546 10.348 2.49575 10.8734 3.1254 10.9458C3.32699 10.97 3.52858 10.9592 3.73017 10.9673C3.95914 10.9726 4.13335 11.1281 4.17566 11.3721C4.19059 11.4606 4.19557 11.5517 4.19557 11.6429C4.19557 12.0611 4.19557 12.4821 4.19557 12.9003Z" fill="white"/>
<path d="M6.43296 6.11732C6.43296 6.66961 6.03725 7.10126 5.52457 7.10126C5.00442 7.10126 4.60622 6.6723 4.6087 6.11196C4.6087 5.55967 5.00691 5.13607 5.52208 5.13607C6.03476 5.13607 6.43296 5.56504 6.43296 6.11732Z" fill="white"/>
<path d="M8.23234 7.10126C7.71716 7.10126 7.31647 6.67766 7.31399 6.12805C7.31399 5.56235 7.70721 5.13607 8.22736 5.13607C8.74004 5.13607 9.13824 5.56504 9.13824 6.11732C9.13824 6.66961 8.74253 7.10126 8.22985 7.10126H8.23234Z" fill="white"/>
<path d="M11.846 6.12001C11.846 6.6723 11.4478 7.10126 10.9351 7.10126C10.415 7.10126 10.0193 6.6723 10.0193 6.10928C10.0193 5.55699 10.42 5.13607 10.9351 5.13607C11.4478 5.13607 11.8435 5.56772 11.8435 6.12001H11.846Z" fill="white"/>
<path d="M8.22487 0.278072C9.87492 0.278072 11.5225 0.291477 13.1725 0.27271C14.2327 0.259305 15.288 1.10382 15.4448 2.42288C15.4572 2.51672 15.4547 2.61592 15.4547 2.70975C15.4547 4.98057 15.4547 7.25408 15.4547 9.5249C15.4547 10.7689 14.6011 11.8011 13.4562 11.9512C13.3492 11.9646 13.2397 11.9593 13.1327 11.9593C10.9376 11.9593 8.74502 11.9593 6.54994 11.9593C6.42301 11.9593 6.33093 11.9968 6.24133 12.0987C5.57434 12.8628 4.90487 13.6188 4.23539 14.3802C4.18064 14.4419 4.12589 14.5062 4.06864 14.5652C3.91434 14.7234 3.73515 14.7743 3.53854 14.6805C3.3469 14.5893 3.25731 14.4204 3.25731 14.1979C3.25731 13.5464 3.25731 12.8923 3.25731 12.2408C3.25731 12.071 3.17684 11.9771 3.0159 11.9593C2.03284 11.852 1.19911 11.0102 1.02987 9.95386C1.00747 9.81713 1 9.68308 1 9.54634C1 7.2648 1 4.98325 1 2.70171C0.997516 1.35584 2.00297 0.280753 3.24984 0.278072C4.90736 0.278072 6.56736 0.278072 8.22487 0.278072ZM4.19557 12.9003C4.21299 12.911 4.23041 12.9217 4.24783 12.9325C4.2777 12.8869 4.30259 12.8386 4.33743 12.7984C4.80532 12.2649 5.27569 11.7341 5.74109 11.1979C5.88295 11.0343 6.03974 10.9619 6.2488 10.9619C8.50859 10.9673 10.7684 10.9646 13.0282 10.9646C13.1875 10.9646 13.3492 10.9539 13.5035 10.9137C14.1406 10.7474 14.5289 10.1683 14.5314 9.38548C14.5314 7.2085 14.5314 5.03419 14.5314 2.85721C14.5314 2.69903 14.5189 2.54353 14.4866 2.39071C14.3422 1.72046 13.8146 1.27541 13.1327 1.27273C9.86247 1.26737 6.59225 1.27273 3.32202 1.27273C3.0159 1.27273 2.7272 1.35584 2.47584 1.55692C2.07017 1.88132 1.92085 2.32905 1.92085 2.85453C1.92085 4.97521 1.92085 7.0959 1.92085 9.21658C1.92085 9.3694 1.92582 9.51953 1.94076 9.66967C2.00546 10.348 2.49575 10.8734 3.1254 10.9458C3.32699 10.97 3.52858 10.9592 3.73017 10.9673C3.95914 10.9726 4.13335 11.1281 4.17566 11.3721C4.19059 11.4606 4.19557 11.5517 4.19557 11.6429C4.19557 12.0611 4.19557 12.4821 4.19557 12.9003Z" stroke="white" stroke-width="0.502954"/>
<path d="M6.43296 6.11732C6.43296 6.66961 6.03725 7.10126 5.52457 7.10126C5.00442 7.10126 4.60622 6.6723 4.6087 6.11196C4.6087 5.55967 5.00691 5.13607 5.52208 5.13607C6.03476 5.13607 6.43296 5.56504 6.43296 6.11732Z" stroke="white" stroke-width="0.502954"/>
<path d="M8.23234 7.10126C7.71716 7.10126 7.31647 6.67766 7.31399 6.12805C7.31399 5.56235 7.70721 5.13607 8.22736 5.13607C8.74004 5.13607 9.13824 5.56504 9.13824 6.11732C9.13824 6.66961 8.74253 7.10126 8.22985 7.10126H8.23234Z" stroke="white" stroke-width="0.502954"/>
<path d="M11.846 6.12001C11.846 6.6723 11.4478 7.10126 10.9351 7.10126C10.415 7.10126 10.0193 6.6723 10.0193 6.10928C10.0193 5.55699 10.42 5.13607 10.9351 5.13607C11.4478 5.13607 11.8435 5.56772 11.8435 6.12001H11.846Z" stroke="white" stroke-width="0.502954"/>
</svg>
