<?xml version="1.0" encoding="UTF-8"?>
<svg id="Layer_2" xmlns="http://www.w3.org/2000/svg" viewBox="0 0 235.59 74.36">
  <defs>
    <style>
      .cls-1 {
        fill: #23a6c5;
        fill-rule: evenodd;
      }

      .cls-2 {
        fill: #0f0e17;
      }
    </style>
  </defs>
  <g id="Layer_1-2" data-name="Layer_1">
    <g>
      <g>
        <path class="cls-2" d="M77.05,5.84h39.67v9.18h-22.49v5.41h21.51v9.18h-21.51v5.19h22.95v9.18h-40.13V5.84Z"/>
        <path class="cls-2" d="M134.31,35.79h3.79c5.48,0,6.73-3.02,6.73-8.48s-1.36-8.57-6.79-8.57h-3.73v17.05ZM119.15,11.1h22.22c11.3,0,19.28,3.2,19.28,16.54,0,12.43-8.59,16.34-19.9,16.34h-21.6V11.1Z"/>
        <path class="cls-2" d="M199.48,42.76c-5.2,1.27-10.12,1.79-16.34,1.79-13.11,0-23.63-5.75-23.63-17.48,0-11.02,10.97-16.53,23.63-16.53,7.41,0,10.97.47,14.75,1.22v8.86c-2.15-1.04-6.16-1.88-10.4-1.88-7.52,0-12.49,3.16-12.49,9.14,0,4.52,2.2,8.48,8.25,8.48,1.08,0,2.32,0,3.22-.28v-8.76h13v15.45Z"/>
        <path class="cls-2" d="M200.78,11.1h34.2v7.91h-19.39v4.66h18.54v7.91h-18.54v4.48h19.79v7.92h-34.6V11.1Z"/>
        <path class="cls-1" d="M5.19,11.27c.56-2.72,2.8-4.76,5.56-5.07L66.21.04c3.79-.42,7.11,2.55,7.11,6.36v35.04c0,3.71-3.15,6.65-6.85,6.38l-29.94-2.14-12.84,13.64c-1.32,1.41-3.69.47-3.69-1.46v-13.36l-14.05-1c-3.86-.28-6.59-3.88-5.81-7.67L5.19,11.27ZM52.82,26.67h.06l6.09,8.84h4.48l-8.21-11.74,7.97-9.47h-4.6l-8.12,10.15h-.06v-10.15h-3.61v21.2h3.61v-6l2.39-2.84ZM36.7,35.75c-2.72,0-5.46-1.05-7.67-3.34l2.27-2.78c1.52,1.85,3.61,2.78,5.43,2.78,2.33,0,3.52-1.02,3.52-2.57,0-1.85-1.4-2.45-4.09-3.4-3.23-1.13-6.42-2.57-6.42-6.45,0-3.31,3.05-5.91,6.72-5.91,2.51-.03,4.87.9,7.02,2.6l-2.15,2.84c-1.73-1.43-3.43-2.18-4.87-2.18-1.64,0-2.96.9-2.99,2.48-.03,1.54,1.38,2.08,3.91,3.05l.06.02.41.16c3.45,1.35,6.16,2.41,6.16,6.35,0,4.39-3.91,6.36-7.32,6.36ZM23.01,30.94l1.61,4.57h3.76l-7.94-21.2h-3.52l-7.91,21.2h3.76l1.58-4.57h8.66ZM21.94,27.84h-6.48l3.2-9.2h.06l3.23,9.2Z"/>
      </g>
      <g>
        <g>
          <path d="M38.89,59.65c-.19,0-.35-.06-.47-.18-.12-.12-.18-.27-.18-.44v-5.14l.14.22-.74.55c-.1.08-.21.11-.36.11-.16,0-.31-.06-.43-.18-.12-.12-.18-.27-.18-.44,0-.22.11-.39.32-.53l1.47-.98c.07-.05.14-.08.23-.1.08-.02.16-.03.24-.03.2,0,.35.06.47.18.12.12.17.27.17.44v5.9c0,.18-.06.33-.19.44-.13.12-.29.18-.48.18Z"/>
          <path d="M45.5,58.53c.16,0,.3.05.41.16.11.11.16.25.16.41s-.05.29-.16.39-.24.16-.41.16h-3.47c-.18,0-.32-.05-.42-.16-.1-.11-.15-.25-.15-.42s.06-.32.18-.45l2.22-2.38c.25-.27.45-.55.6-.84.15-.29.22-.53.22-.75,0-.34-.1-.61-.3-.82-.2-.21-.46-.31-.79-.31-.13,0-.26.03-.4.09-.14.06-.27.15-.39.25-.13.11-.24.23-.35.38-.08.11-.16.18-.24.21s-.16.04-.22.04c-.15,0-.29-.06-.41-.17-.13-.11-.19-.24-.19-.39,0-.12.04-.23.12-.34.08-.11.18-.22.29-.34.17-.17.36-.32.57-.45.21-.13.43-.23.65-.3.22-.07.44-.11.65-.11.46,0,.85.09,1.19.27.34.18.6.43.78.76.18.33.28.72.28,1.17,0,.38-.11.79-.33,1.25-.22.46-.52.89-.89,1.29l-1.38,1.47-.11-.09h2.29Z"/>
          <path d="M50.15,53.09c-.08,0-.15-.03-.21-.08-.06-.05-.09-.12-.09-.21,0-.08.03-.15.09-.2.06-.05.13-.08.21-.08h4.86c.08,0,.15.03.21.08.06.05.09.13.09.21s-.03.16-.09.21c-.06.05-.13.08-.21.08h-4.86ZM52.57,59.65c-.1,0-.17-.03-.23-.09-.06-.06-.09-.13-.09-.21v-6.5h.63v6.5c0,.08-.03.15-.09.21-.06.06-.14.09-.22.09Z"/>
          <path d="M58.84,54.4c.43,0,.77.09,1.04.28.27.18.46.43.59.75.13.31.19.66.19,1.04v2.89c0,.08-.03.15-.09.21-.06.06-.13.09-.21.09-.1,0-.17-.03-.22-.09-.05-.06-.08-.13-.08-.21v-2.89c0-.28-.04-.53-.13-.75-.08-.22-.22-.4-.41-.54-.19-.13-.45-.2-.76-.2-.29,0-.56.07-.81.2-.25.13-.46.31-.62.54-.16.22-.23.48-.23.75v2.89c0,.08-.03.15-.09.21-.06.06-.13.09-.21.09-.1,0-.17-.03-.22-.09-.05-.06-.08-.13-.08-.21v-6.94c0-.08.03-.15.09-.21.06-.06.13-.09.22-.09s.16.03.22.09c.06.06.09.13.09.21v3.3l-.23.36c.01-.21.08-.42.2-.62.12-.2.27-.38.46-.54.19-.16.4-.29.63-.38.23-.09.47-.14.7-.14Z"/>
          <path d="M62.54,53.66c-.14,0-.25-.03-.32-.1-.07-.06-.11-.16-.11-.28v-.1c0-.12.04-.22.12-.28.08-.07.19-.1.32-.1.13,0,.23.03.3.1.07.06.11.16.11.28v.1c0,.12-.04.22-.11.28-.07.06-.17.1-.31.1ZM62.85,59.34c0,.08-.03.15-.09.21-.06.06-.13.09-.21.09-.09,0-.16-.03-.22-.09-.06-.06-.09-.13-.09-.21v-4.69c0-.08.03-.15.09-.21.06-.06.13-.09.22-.09s.16.03.22.09c.06.06.09.13.09.21v4.69Z"/>
          <path d="M66.89,54.32c.45,0,.81.09,1.08.27.27.18.46.43.58.73.12.31.18.65.18,1.03v3c0,.08-.03.15-.09.21-.06.06-.13.09-.21.09-.1,0-.17-.03-.22-.09-.05-.06-.08-.13-.08-.21v-2.97c0-.27-.04-.52-.13-.75-.09-.22-.23-.4-.43-.54-.2-.14-.46-.2-.79-.2-.29,0-.57.07-.83.2-.26.14-.47.32-.64.54-.16.22-.24.47-.24.75v2.97c0,.08-.03.15-.09.21-.06.06-.13.09-.21.09-.1,0-.17-.03-.22-.09-.05-.06-.08-.13-.08-.21v-4.57c0-.08.03-.15.09-.21.06-.06.13-.09.22-.09s.16.03.22.09c.06.06.09.13.09.21v.86l-.23.37c.01-.22.08-.43.21-.63.13-.2.29-.38.48-.54.2-.16.42-.29.66-.38.24-.09.48-.14.73-.14Z"/>
          <path d="M72.5,54.32c.31,0,.59.05.85.16.26.11.48.24.68.41.19.17.34.34.45.53.11.19.16.37.16.54l-.17-.24v-.95c0-.09.03-.16.09-.22.06-.06.13-.09.22-.09.1,0,.17.03.22.09.05.06.08.14.08.22v4.42c0,.54-.11,1-.34,1.38-.22.37-.53.66-.91.85-.38.19-.82.29-1.31.29-.24,0-.49-.03-.75-.09-.26-.06-.49-.14-.67-.24-.19-.09-.29-.19-.31-.29-.05-.06-.08-.12-.08-.18,0-.06.03-.11.09-.15.07-.05.14-.05.21-.02.07.04.19.09.34.15.07.02.16.05.28.09.12.04.25.08.41.11.16.03.33.05.5.05.61,0,1.09-.18,1.42-.53.34-.35.5-.81.5-1.38v-.98l.11.03c-.06.24-.16.46-.3.64-.14.18-.3.34-.49.46-.19.13-.4.22-.62.29-.22.07-.44.1-.66.1-.47,0-.89-.12-1.27-.36-.37-.24-.67-.56-.89-.97-.22-.41-.33-.87-.33-1.4s.11-.98.33-1.39c.22-.41.52-.73.89-.97s.79-.35,1.26-.35ZM72.58,54.89c-.37,0-.71.09-1,.28-.3.19-.53.44-.69.76-.17.32-.25.69-.25,1.1s.08.78.25,1.1c.17.33.4.58.69.77.3.19.63.28,1,.28s.71-.09,1-.28.52-.44.69-.76c.17-.32.25-.7.25-1.12s-.08-.79-.25-1.12c-.17-.32-.4-.57-.69-.75-.29-.18-.63-.27-1-.27Z"/>
          <path d="M76.3,58.82c-.05-.08-.08-.16-.08-.24s.05-.14.13-.19c.05-.05.12-.07.19-.06.07,0,.14.04.2.1.18.24.41.43.67.58.26.15.57.22.93.22.19,0,.38-.03.57-.1.19-.06.34-.16.46-.29.12-.13.18-.3.18-.51s-.06-.38-.18-.51c-.12-.13-.28-.23-.47-.31-.19-.08-.4-.14-.62-.19-.23-.06-.46-.13-.67-.21-.22-.08-.41-.18-.58-.3-.17-.12-.3-.26-.4-.43-.1-.17-.15-.38-.15-.62,0-.29.08-.54.23-.75.16-.22.37-.39.64-.51.27-.12.57-.18.91-.18.17,0,.35.02.55.07.2.04.39.12.58.22.19.1.36.24.51.42.06.06.09.13.09.21s-.03.15-.1.21c-.05.04-.12.06-.19.06s-.13-.03-.18-.08c-.16-.18-.36-.32-.58-.42-.22-.09-.47-.14-.72-.14-.2,0-.38.03-.56.1-.17.06-.32.16-.43.29-.12.13-.17.3-.17.51.01.2.08.36.21.48.13.12.29.22.5.31.21.08.44.16.7.22.22.05.43.12.63.19.2.08.38.17.53.28.15.11.28.25.37.42s.14.38.14.64c0,.3-.08.56-.25.77s-.39.38-.67.5c-.28.12-.59.17-.93.17-.37,0-.72-.07-1.07-.21-.34-.14-.65-.38-.91-.71Z"/>
          <path d="M88.57,52.47c.09,0,.16.03.22.1.06.06.09.13.09.21,0,.03,0,.07-.02.1-.01.03-.03.06-.05.1l-2.4,3.29.12-.4v3.48c0,.08-.03.15-.09.21-.06.06-.14.09-.22.09s-.16-.03-.22-.09c-.06-.06-.09-.13-.09-.21v-3.41l.05.25-2.34-3.19s-.05-.07-.06-.11c-.01-.04-.02-.07-.02-.11,0-.09.04-.16.11-.22.07-.06.14-.09.22-.09.1,0,.19.05.26.14l2.19,2.99-.15-.02,2.13-2.97c.07-.09.16-.14.27-.14Z"/>
          <path d="M94.3,57.04c0,.52-.11.98-.34,1.39-.22.41-.53.73-.92.97-.39.23-.83.35-1.33.35s-.92-.12-1.31-.35-.7-.56-.93-.97c-.23-.41-.34-.88-.34-1.39s.11-.99.34-1.4c.23-.41.54-.73.93-.97.39-.24.83-.36,1.31-.36s.94.12,1.33.36c.39.24.69.56.92.97.22.41.34.87.34,1.4ZM93.69,57.04c0-.41-.09-.78-.25-1.11-.17-.32-.4-.58-.7-.76-.3-.19-.63-.28-1.01-.28s-.7.09-1,.28c-.3.19-.54.44-.71.76-.17.32-.26.69-.26,1.11s.09.78.26,1.1c.17.32.41.57.71.76.3.19.63.28,1,.28s.72-.09,1.01-.28c.3-.19.53-.44.7-.76.17-.32.25-.69.25-1.1Z"/>
          <path d="M99.5,54.47c.09,0,.16.03.22.09.06.06.09.13.09.21v2.88c0,.67-.19,1.19-.57,1.54-.38.35-.89.53-1.54.53s-1.15-.18-1.52-.53c-.38-.35-.57-.87-.57-1.54v-2.88c0-.08.03-.15.09-.21.06-.06.13-.09.22-.09s.16.03.22.09c.06.06.09.13.09.21v2.88c0,.49.13.86.39,1.12.26.26.62.38,1.09.38s.84-.13,1.1-.38c.27-.25.4-.63.4-1.12v-2.88c0-.08.03-.15.08-.21.05-.06.13-.09.22-.09Z"/>
          <path d="M104.65,52.51s.1.01.15.03c.05.02.09.05.13.1l2.82,4.22h-.28s2.83-4.22,2.83-4.22c.07-.1.17-.15.28-.13.08,0,.15.03.21.09.06.06.09.13.09.22v6.53c0,.08-.03.15-.09.21-.06.06-.14.09-.22.09-.1,0-.17-.03-.23-.09-.06-.06-.09-.13-.09-.21v-5.91l.18.02-2.58,3.91s-.05.07-.09.1-.09.03-.14.03c-.05,0-.09,0-.14-.03-.04-.02-.08-.06-.11-.1l-2.59-3.95.19-.13v6.06c0,.08-.03.15-.09.21-.06.06-.13.09-.22.09s-.16-.03-.21-.09c-.05-.06-.08-.13-.08-.21v-6.53c0-.08.03-.15.09-.21.06-.06.13-.09.22-.09Z"/>
          <path d="M116.53,54.47c.09,0,.16.03.22.09.06.06.09.13.09.21v2.88c0,.67-.19,1.19-.57,1.54-.38.35-.89.53-1.54.53s-1.15-.18-1.52-.53c-.38-.35-.57-.87-.57-1.54v-2.88c0-.08.03-.15.09-.21.06-.06.13-.09.22-.09s.16.03.22.09c.06.06.09.13.09.21v2.88c0,.49.13.86.39,1.12.26.26.62.38,1.09.38s.84-.13,1.1-.38c.27-.25.4-.63.4-1.12v-2.88c0-.08.03-.15.08-.21.05-.06.13-.09.22-.09Z"/>
          <path d="M118.14,58.82c-.05-.08-.08-.16-.08-.24,0-.08.05-.14.13-.19.05-.05.12-.07.19-.06.07,0,.14.04.2.1.18.24.41.43.67.58.26.15.57.22.93.22.19,0,.38-.03.57-.1.19-.06.34-.16.46-.29.12-.13.18-.3.18-.51s-.06-.38-.18-.51c-.12-.13-.28-.23-.47-.31-.19-.08-.4-.14-.62-.19-.23-.06-.46-.13-.67-.21-.22-.08-.41-.18-.58-.3-.17-.12-.3-.26-.4-.43-.1-.17-.15-.38-.15-.62,0-.29.08-.54.23-.75.16-.22.37-.39.64-.51.27-.12.57-.18.91-.18.17,0,.35.02.55.07.2.04.39.12.58.22.19.1.36.24.51.42.06.06.09.13.09.21s-.03.15-.1.21c-.05.04-.12.06-.19.06s-.13-.03-.18-.08c-.16-.18-.36-.32-.58-.42-.22-.09-.47-.14-.72-.14-.2,0-.38.03-.56.1-.17.06-.32.16-.43.29s-.17.3-.17.51c.01.2.08.36.21.48.13.12.29.22.5.31.21.08.44.16.7.22.22.05.43.12.63.19.2.08.38.17.53.28.15.11.28.25.37.42s.14.38.14.64c0,.3-.08.56-.25.77s-.39.38-.67.5c-.28.12-.59.17-.93.17-.37,0-.72-.07-1.07-.21-.34-.14-.65-.38-.91-.71Z"/>
          <path d="M122.88,54.46h2.38c.08,0,.15.03.2.09.05.06.08.13.08.21,0,.08-.03.14-.08.19-.05.05-.12.08-.2.08h-2.38c-.08,0-.15-.03-.21-.09-.06-.06-.09-.12-.09-.2,0-.08.03-.15.09-.2.06-.05.13-.08.21-.08ZM123.93,53.02c.09,0,.16.03.22.09.06.06.09.13.09.21v5.12c0,.19.03.33.08.43.05.1.12.16.2.19.08.03.16.04.25.04.05,0,.1,0,.15-.03.04-.02.09-.03.15-.03.06,0,.11.02.16.07.04.05.07.11.07.18,0,.09-.05.17-.16.24-.11.06-.24.1-.39.1-.06,0-.15,0-.28-.02-.12,0-.25-.05-.38-.11-.13-.06-.24-.18-.32-.34-.08-.16-.13-.4-.13-.7v-5.15c0-.08.03-.15.09-.21.06-.06.13-.09.22-.09Z"/>
          <path d="M129.93,59.65c-.1,0-.17-.03-.23-.09-.06-.06-.09-.14-.09-.22v-6.51c0-.09.03-.16.09-.22.06-.06.14-.09.23-.09.09,0,.16.03.22.09.06.06.09.14.09.22v6.51c0,.09-.04.16-.1.22-.06.06-.14.09-.22.09ZM134.6,52.53c.08,0,.15.03.21.09.06.06.09.13.09.2,0,.08-.03.15-.09.21l-4.63,4.33-.08-.69,4.28-4.05c.07-.07.14-.1.22-.1ZM134.71,59.69c-.09,0-.16-.04-.22-.11l-2.9-3.64.48-.48,2.92,3.69c.05.07.07.14.07.21,0,.11-.04.19-.12.24s-.15.08-.23.08Z"/>
          <path d="M138.72,54.32c.45,0,.81.09,1.08.27.27.18.46.43.58.73.12.31.18.65.18,1.03v3c0,.08-.03.15-.09.21-.06.06-.13.09-.21.09-.1,0-.17-.03-.22-.09-.05-.06-.08-.13-.08-.21v-2.97c0-.27-.04-.52-.13-.75-.09-.22-.23-.4-.43-.54-.2-.14-.46-.2-.79-.2-.29,0-.57.07-.83.2-.26.14-.47.32-.64.54-.16.22-.25.47-.25.75v2.97c0,.08-.03.15-.09.21-.06.06-.13.09-.21.09-.09,0-.17-.03-.22-.09-.05-.06-.08-.13-.08-.21v-4.57c0-.08.03-.15.09-.21.06-.06.13-.09.22-.09s.16.03.22.09c.06.06.09.13.09.21v.86l-.23.37c.01-.22.08-.43.21-.63.13-.2.29-.38.48-.54.2-.16.42-.29.66-.38.24-.09.48-.14.73-.14Z"/>
          <path d="M147.01,57.04c0,.52-.11.98-.34,1.39-.22.41-.53.73-.92.97-.39.23-.83.35-1.33.35s-.92-.12-1.31-.35c-.39-.23-.7-.56-.93-.97-.23-.41-.34-.88-.34-1.39s.11-.99.34-1.4c.23-.41.54-.73.93-.97.39-.24.83-.36,1.31-.36s.94.12,1.33.36c.39.24.69.56.92.97.22.41.34.87.34,1.4ZM146.4,57.04c0-.41-.09-.78-.26-1.11-.17-.32-.4-.58-.7-.76-.3-.19-.63-.28-1.01-.28s-.7.09-1,.28c-.3.19-.54.44-.71.76-.17.32-.26.69-.26,1.11s.09.78.26,1.1c.17.32.41.57.71.76.3.19.63.28,1,.28s.72-.09,1.01-.28c.3-.19.53-.44.7-.76.17-.32.26-.69.26-1.1Z"/>
          <path d="M154.51,54.33c.08,0,.14.03.21.08.06.05.1.13.1.22,0,.02,0,.04,0,.07,0,.03-.01.05-.02.06l-1.57,4.69c-.03.06-.07.11-.13.15-.06.04-.12.05-.18.05-.12,0-.21-.07-.28-.19l-1.44-3.39.18.04-1.27,3.35c-.05.12-.15.19-.28.19-.06,0-.12,0-.18-.05-.06-.04-.1-.09-.12-.15l-1.61-4.69s-.03-.09-.03-.13c0-.09.03-.16.09-.22.06-.06.13-.09.23-.09.06,0,.12.02.17.05.05.03.09.08.11.15l1.45,4.35h-.19s1.32-3.33,1.32-3.33c.05-.13.15-.19.29-.19.07,0,.13.02.17.05.05.03.08.08.11.14l1.4,3.33h-.22s1.44-4.35,1.44-4.35c.04-.13.14-.2.29-.2Z"/>
          <path d="M161.31,53.3l-2.48,6.16c-.03.07-.06.12-.11.15-.05.03-.1.05-.16.05-.1,0-.17-.03-.21-.08-.05-.05-.07-.11-.08-.19,0-.03,0-.08.01-.12l2.69-6.59c.03-.07.08-.13.13-.16.05-.03.11-.04.18-.04s.13.02.18.06c.05.04.09.09.12.15l2.68,6.56s.02.08.02.12c0,.09-.03.17-.09.22-.06.05-.13.08-.21.08-.07,0-.13-.02-.18-.06-.05-.04-.09-.09-.12-.15l-2.54-6.2.18.04ZM159.43,57.59l.25-.6h3.16l.12.6h-3.54Z"/>
          <path d="M167.85,54.32c.46,0,.87.12,1.23.35.36.23.64.55.85.95.21.41.32.87.32,1.4s-.11.98-.32,1.4c-.21.42-.5.74-.86.98-.36.24-.77.36-1.21.36-.24,0-.46-.04-.68-.11-.21-.08-.41-.18-.59-.3-.18-.13-.33-.27-.47-.44-.14-.17-.25-.35-.33-.55l.18-.13v1.15c0,.09-.03.16-.09.22-.06.06-.13.09-.22.09s-.16-.03-.22-.09c-.06-.06-.09-.13-.09-.22v-6.95c0-.09.03-.16.08-.22.05-.06.13-.09.22-.09.09,0,.16.03.22.09.06.06.09.13.09.22v3.42l-.14-.08c.07-.21.17-.4.3-.58.13-.17.29-.32.46-.45.18-.13.37-.23.58-.3.21-.07.43-.11.66-.11ZM167.8,54.89c-.37,0-.69.09-.97.28-.28.18-.5.44-.66.75-.16.32-.24.69-.24,1.1s.08.78.24,1.11c.16.33.38.59.66.78.28.19.6.28.97.28s.68-.1.95-.29c.28-.19.5-.45.66-.78.16-.33.25-.7.25-1.1s-.08-.78-.25-1.1c-.16-.32-.38-.57-.66-.75s-.59-.28-.95-.28Z"/>
          <path d="M176.41,57.04c0,.52-.11.98-.34,1.39-.22.41-.53.73-.92.97-.39.23-.83.35-1.33.35s-.92-.12-1.31-.35c-.39-.23-.7-.56-.93-.97-.23-.41-.34-.88-.34-1.39s.11-.99.34-1.4c.23-.41.54-.73.93-.97.39-.24.83-.36,1.31-.36s.94.12,1.33.36c.39.24.69.56.92.97.22.41.34.87.34,1.4ZM175.8,57.04c0-.41-.08-.78-.25-1.11-.17-.32-.4-.58-.7-.76-.29-.19-.63-.28-1.01-.28s-.7.09-1,.28c-.3.19-.54.44-.71.76-.17.32-.26.69-.26,1.11s.09.78.26,1.1c.17.32.41.57.71.76.3.19.63.28,1,.28s.72-.09,1.01-.28c.3-.19.53-.44.7-.76.17-.32.25-.69.25-1.1Z"/>
          <path d="M181.61,54.47c.09,0,.16.03.22.09.06.06.09.13.09.21v2.88c0,.67-.19,1.19-.57,1.54-.38.35-.89.53-1.54.53s-1.15-.18-1.53-.53c-.38-.35-.57-.87-.57-1.54v-2.88c0-.08.03-.15.09-.21.06-.06.13-.09.22-.09s.16.03.22.09c.06.06.09.13.09.21v2.88c0,.49.13.86.39,1.12.26.26.62.38,1.09.38s.84-.13,1.1-.38c.27-.25.4-.63.4-1.12v-2.88c0-.08.03-.15.08-.21.05-.06.13-.09.22-.09Z"/>
          <path d="M183.18,54.46h2.38c.08,0,.15.03.21.09.05.06.08.13.08.21,0,.08-.03.14-.08.19-.05.05-.12.08-.21.08h-2.38c-.08,0-.15-.03-.21-.09-.06-.06-.09-.12-.09-.2,0-.08.03-.15.09-.2.06-.05.13-.08.21-.08ZM184.23,53.02c.09,0,.16.03.22.09.06.06.09.13.09.21v5.12c0,.19.03.33.08.43.05.1.12.16.2.19.08.03.16.04.25.04.05,0,.1,0,.15-.03.05-.02.09-.03.15-.03.06,0,.11.02.16.07.04.05.07.11.07.18,0,.09-.05.17-.16.24-.11.06-.24.1-.39.1-.06,0-.15,0-.28-.02-.12,0-.25-.05-.38-.11-.13-.06-.24-.18-.32-.34-.08-.16-.13-.4-.13-.7v-5.15c0-.08.03-.15.09-.21.06-.06.13-.09.22-.09Z"/>
          <path d="M192.3,53.3l-2.48,6.16c-.03.07-.06.12-.11.15-.05.03-.1.05-.16.05-.1,0-.17-.03-.21-.08-.05-.05-.08-.11-.08-.19,0-.03,0-.08,0-.12l2.69-6.59c.03-.07.08-.13.13-.16.05-.03.11-.04.18-.04s.13.02.18.06c.05.04.09.09.12.15l2.68,6.56s.02.08.02.12c0,.09-.03.17-.09.22-.06.05-.13.08-.21.08-.07,0-.13-.02-.18-.06-.05-.04-.09-.09-.12-.15l-2.54-6.2.18.04ZM190.41,57.59l.25-.6h3.16l.12.6h-3.54Z"/>
          <path d="M198.82,54.32c.45,0,.81.09,1.08.27.27.18.46.43.58.73.12.31.18.65.18,1.03v3c0,.08-.03.15-.09.21-.06.06-.13.09-.21.09-.09,0-.17-.03-.22-.09-.05-.06-.08-.13-.08-.21v-2.97c0-.27-.05-.52-.13-.75-.09-.22-.23-.4-.43-.54-.2-.14-.46-.2-.79-.2-.29,0-.57.07-.83.2-.26.14-.47.32-.64.54-.16.22-.24.47-.24.75v2.97c0,.08-.03.15-.09.21-.06.06-.13.09-.21.09-.09,0-.17-.03-.22-.09-.05-.06-.08-.13-.08-.21v-4.57c0-.08.03-.15.09-.21.06-.06.13-.09.22-.09s.16.03.22.09c.06.06.09.13.09.21v.86l-.23.37c.01-.22.08-.43.21-.63.12-.2.29-.38.48-.54.2-.16.42-.29.66-.38.24-.09.48-.14.73-.14Z"/>
          <path d="M206.09,54.35c.09,0,.16.03.22.09.06.06.09.13.09.21v4.5c0,.55-.11,1.02-.33,1.39-.22.38-.51.66-.88.86-.37.19-.79.29-1.25.29-.29,0-.56-.03-.81-.1-.25-.06-.45-.15-.61-.25-.08-.05-.14-.11-.18-.17-.04-.07-.04-.14,0-.21.03-.09.09-.16.16-.19.07-.03.14-.03.22,0,.12.06.28.14.5.22.22.09.46.13.74.13.37,0,.7-.08.97-.23.28-.16.49-.38.64-.68.15-.3.22-.65.22-1.06v-.73l.07.25c-.1.21-.25.4-.43.56-.19.16-.4.29-.64.38-.24.09-.5.14-.77.14-.41,0-.75-.08-1.01-.25-.27-.17-.47-.4-.6-.69-.13-.29-.19-.64-.19-1.03v-3.13c0-.08.03-.15.08-.21.05-.06.13-.09.22-.09.09,0,.16.03.22.09.06.06.09.13.09.21v3.04c0,.48.1.84.31,1.1.21.26.54.39,1.01.39.29,0,.56-.07.81-.21.24-.14.45-.32.6-.55.16-.23.23-.47.23-.73v-3.04c0-.08.03-.15.09-.21.06-.06.13-.09.22-.09Z"/>
          <path d="M212.9,59.75c-.52,0-.96-.07-1.35-.24-.38-.17-.74-.43-1.09-.77-.03-.03-.06-.06-.09-.1-.02-.04-.04-.09-.04-.14,0-.08.03-.16.1-.22.06-.07.14-.1.22-.1s.16.03.22.1c.27.29.57.5.9.65.34.15.7.22,1.09.22.33,0,.62-.05.87-.15.26-.1.46-.25.61-.44.15-.19.22-.41.22-.66,0-.31-.09-.57-.26-.76-.17-.19-.39-.35-.67-.48-.28-.12-.59-.24-.93-.34-.28-.08-.54-.17-.79-.28-.25-.11-.48-.24-.67-.39-.2-.15-.35-.34-.46-.57-.11-.22-.16-.5-.16-.82,0-.36.09-.68.29-.96.19-.28.46-.5.81-.66.35-.16.76-.24,1.22-.24.4,0,.79.07,1.16.2.37.14.66.34.88.6.1.11.15.21.15.29,0,.07-.03.14-.1.2s-.14.1-.22.1c-.07,0-.13-.02-.17-.07-.12-.14-.26-.27-.44-.38-.18-.11-.37-.2-.59-.26-.21-.06-.44-.09-.67-.09-.32,0-.61.05-.86.15-.26.1-.46.24-.6.42-.15.18-.22.4-.22.66,0,.29.08.52.25.7.16.18.38.33.64.45.27.12.55.23.85.33.29.08.57.17.84.28.27.11.51.24.71.39.21.16.37.35.49.59.12.24.18.54.18.9s-.1.66-.3.94c-.2.28-.47.5-.81.66-.34.16-.75.25-1.21.25Z"/>
          <path d="M216.18,54.46h2.38c.08,0,.15.03.2.09.05.06.08.13.08.21,0,.08-.03.14-.08.19-.05.05-.12.08-.2.08h-2.38c-.08,0-.15-.03-.21-.09-.06-.06-.09-.12-.09-.2,0-.08.03-.15.09-.2.06-.05.13-.08.21-.08ZM217.23,53.02c.09,0,.16.03.22.09.06.06.09.13.09.21v5.12c0,.19.03.33.08.43.05.1.12.16.2.19.08.03.16.04.25.04.05,0,.1,0,.15-.03.04-.02.09-.03.15-.03.06,0,.11.02.16.07.04.05.07.11.07.18,0,.09-.05.17-.16.24-.11.06-.24.1-.39.1-.06,0-.15,0-.28-.02-.12,0-.25-.05-.38-.11-.13-.06-.24-.18-.32-.34-.08-.16-.13-.4-.13-.7v-5.15c0-.08.03-.15.09-.21.06-.06.13-.09.22-.09Z"/>
          <path d="M224.78,57.04c0,.52-.11.98-.34,1.39-.22.41-.53.73-.92.97-.39.23-.83.35-1.33.35s-.92-.12-1.31-.35c-.39-.23-.7-.56-.93-.97-.23-.41-.34-.88-.34-1.39s.11-.99.34-1.4c.23-.41.54-.73.93-.97.39-.24.83-.36,1.31-.36s.94.12,1.33.36c.39.24.69.56.92.97.22.41.34.87.34,1.4ZM224.17,57.04c0-.41-.09-.78-.26-1.11-.17-.32-.4-.58-.7-.76-.3-.19-.63-.28-1.01-.28s-.7.09-1,.28c-.3.19-.54.44-.71.76-.17.32-.26.69-.26,1.11s.09.78.26,1.1c.17.32.41.57.71.76.3.19.63.28,1,.28s.72-.09,1.01-.28c.3-.19.53-.44.7-.76.17-.32.26-.69.26-1.1Z"/>
          <path d="M228.38,54.32c.33,0,.63.04.9.11.27.07.49.17.66.29.17.12.25.26.25.4,0,.07-.02.13-.07.2-.05.06-.11.1-.19.1s-.15-.02-.2-.06c-.05-.04-.1-.09-.15-.14-.05-.05-.12-.11-.22-.15-.09-.04-.21-.08-.38-.11-.16-.03-.35-.05-.56-.05-.38,0-.72.1-1.03.29-.31.19-.55.45-.72.77-.18.32-.27.68-.27,1.09s.09.78.26,1.1c.17.33.4.58.7.77.3.19.65.28,1.05.28.27,0,.48-.02.63-.07.15-.05.28-.1.39-.16.13-.08.22-.15.28-.22.06-.07.13-.11.23-.11.09,0,.15.03.2.08.04.05.07.12.07.2,0,.11-.08.23-.24.36s-.38.25-.66.35c-.28.1-.6.15-.96.15-.51,0-.96-.12-1.34-.36-.38-.24-.68-.56-.9-.97-.21-.41-.32-.88-.32-1.39s.11-.95.33-1.36.52-.74.91-.98c.39-.25.84-.37,1.36-.37Z"/>
          <path d="M231.73,59.65c-.09,0-.16-.03-.22-.09-.06-.06-.09-.13-.09-.21v-6.94c0-.08.03-.15.09-.21.06-.06.13-.09.22-.09s.16.03.22.09c.06.06.09.13.09.21v6.94c0,.08-.03.15-.09.21-.06.06-.13.09-.22.09ZM235.2,54.42c.08,0,.14.03.21.1.06.07.09.13.09.21,0,.09-.04.17-.11.24l-3.43,2.92-.03-.72,3.06-2.63c.06-.07.13-.1.21-.1ZM235.28,59.65c-.09,0-.16-.04-.22-.11l-2.33-2.47.46-.42,2.31,2.46c.06.07.09.15.09.23,0,.1-.04.17-.11.22-.07.05-.14.08-.19.08Z"/>
        </g>
        <g>
          <path d="M68.44,71.72c.08,0,.15.03.21.09.06.06.09.13.09.21,0,.09-.03.16-.09.22-.06.06-.13.09-.21.09h-3.64c-.09,0-.16-.03-.22-.09s-.09-.13-.09-.21v-6.53c0-.08.03-.15.09-.21.06-.06.14-.09.23-.09.08,0,.15.03.22.09.06.06.1.13.1.21v6.41l-.19-.17h3.5Z"/>
          <path d="M70.05,66.33c-.14,0-.25-.03-.32-.1-.07-.06-.11-.16-.11-.28v-.1c0-.12.04-.22.12-.28.08-.06.19-.1.32-.1.13,0,.23.03.3.1.07.06.11.16.11.28v.1c0,.12-.04.21-.11.28-.07.07-.17.1-.31.1ZM70.36,72.01c0,.08-.03.15-.09.21-.06.06-.13.09-.21.09-.09,0-.16-.03-.22-.09-.06-.06-.09-.13-.09-.21v-4.69c0-.08.03-.15.09-.21.06-.06.13-.09.22-.09s.16.03.22.09c.06.06.09.13.09.21v4.69Z"/>
          <path d="M71.66,71.49c-.05-.08-.08-.16-.08-.24,0-.08.05-.14.13-.19.05-.05.12-.07.19-.06.07,0,.14.04.2.1.18.24.41.43.67.58s.57.22.93.22c.19,0,.38-.03.57-.1.19-.06.34-.16.46-.3.12-.13.18-.3.18-.5s-.06-.38-.18-.51c-.12-.13-.28-.23-.47-.31-.19-.07-.4-.14-.62-.19-.23-.06-.46-.13-.67-.21-.22-.08-.41-.18-.58-.3-.17-.12-.3-.26-.4-.43-.1-.17-.15-.38-.15-.62,0-.29.08-.54.23-.76.16-.22.37-.39.64-.51.27-.12.57-.18.91-.18.17,0,.35.02.55.07.2.05.39.12.58.22.19.1.36.24.51.42.06.06.09.13.09.21s-.03.15-.1.21c-.05.04-.12.06-.19.06s-.13-.03-.18-.08c-.16-.18-.36-.32-.58-.42-.22-.1-.47-.14-.72-.14-.2,0-.38.03-.56.1-.17.07-.32.16-.43.29-.12.13-.17.3-.17.51.01.2.08.36.21.48.13.12.29.22.5.31.21.08.44.16.7.22.22.05.43.12.63.19.2.07.38.17.53.28.15.11.28.25.37.42.09.17.14.38.14.64,0,.3-.08.56-.25.78-.17.22-.39.38-.67.5s-.59.17-.93.17c-.37,0-.72-.07-1.07-.21-.34-.14-.65-.38-.91-.71Z"/>
          <path d="M76.4,67.12h2.38c.08,0,.15.03.2.09.05.06.08.13.08.21,0,.07-.03.14-.08.19-.05.05-.12.08-.2.08h-2.38c-.08,0-.15-.03-.21-.09-.06-.06-.09-.12-.09-.2,0-.08.03-.15.09-.2.06-.05.13-.08.21-.08ZM77.45,65.69c.09,0,.16.03.22.09.06.06.09.13.09.21v5.12c0,.19.03.33.08.43.05.1.12.16.2.19.08.03.16.05.25.05.05,0,.1,0,.15-.03.04-.02.09-.03.15-.03.06,0,.11.02.16.07.04.05.07.11.07.18,0,.1-.05.18-.16.24-.11.06-.24.1-.39.1-.06,0-.15,0-.28-.01-.12-.01-.25-.05-.38-.11-.13-.06-.24-.18-.32-.34-.09-.16-.13-.4-.13-.7v-5.15c0-.08.03-.15.09-.21.06-.06.13-.09.22-.09Z"/>
          <path d="M82.5,72.42c-.52,0-.99-.11-1.39-.34-.4-.22-.71-.54-.94-.94-.22-.4-.34-.87-.34-1.41,0-.58.11-1.07.34-1.48.23-.41.52-.72.89-.94s.75-.33,1.16-.33c.3,0,.59.05.87.16.28.11.53.26.75.47.22.21.4.46.53.76.13.3.21.65.22,1.04,0,.08-.04.15-.1.21-.06.06-.13.09-.21.09h-4.09l-.12-.55h4.02l-.13.12v-.2c-.03-.32-.13-.59-.31-.82-.18-.22-.39-.39-.64-.51-.25-.12-.51-.17-.79-.17-.2,0-.41.04-.63.12-.21.08-.41.21-.58.38-.17.17-.31.39-.42.66-.11.27-.16.59-.16.95,0,.4.08.77.25,1.09.16.33.4.58.71.78.31.19.68.29,1.11.29.24,0,.45-.03.64-.1.19-.07.36-.16.5-.27.14-.11.26-.23.36-.35.07-.06.15-.09.22-.09.07,0,.13.03.18.08.05.05.08.12.08.18,0,.08-.03.15-.1.21-.2.24-.47.46-.8.64-.33.18-.68.27-1.07.27Z"/>
          <path d="M90.18,64.77c.09,0,.16.03.22.09.06.06.09.13.09.22v6.94c0,.08-.03.15-.09.21-.06.06-.13.09-.21.09-.09,0-.16-.03-.22-.09-.06-.06-.09-.13-.09-.21v-1.21l.17-.14c0,.19-.05.39-.15.6-.1.21-.25.4-.43.58-.19.18-.4.32-.65.43-.25.11-.52.16-.8.16-.46,0-.87-.12-1.23-.36-.36-.24-.65-.56-.86-.97-.21-.41-.32-.87-.32-1.4s.11-.98.32-1.39c.21-.41.5-.73.86-.97.36-.23.77-.35,1.22-.35.28,0,.54.05.8.15.25.1.47.24.67.42.19.18.35.38.46.61.11.23.17.46.17.71l-.21-.15v-3.64c0-.08.03-.15.09-.21.06-.06.13-.09.22-.09ZM88.06,71.85c.37,0,.69-.09.96-.28.28-.19.49-.44.65-.77.16-.32.24-.69.24-1.11s-.08-.77-.24-1.1c-.16-.32-.38-.58-.66-.77-.28-.19-.6-.28-.96-.28s-.67.09-.95.28c-.28.19-.5.44-.66.77-.16.32-.24.69-.24,1.1s.08.78.24,1.1c.16.33.38.58.66.77.28.19.6.28.95.28Z"/>
          <path d="M101.39,68.75c0,.54-.08,1.03-.25,1.47s-.4.83-.71,1.16c-.31.33-.67.58-1.09.76-.42.18-.88.27-1.37.27s-.95-.09-1.37-.27c-.42-.18-.78-.43-1.09-.76-.31-.33-.54-.72-.71-1.16-.17-.45-.25-.94-.25-1.47s.08-1.03.25-1.47c.17-.45.4-.83.71-1.16.31-.33.67-.59,1.09-.77.42-.18.88-.27,1.37-.27s.95.09,1.37.27c.42.18.78.44,1.09.77.31.33.54.72.71,1.16.17.45.25.94.25,1.47ZM100.74,68.75c0-.61-.12-1.14-.35-1.6-.23-.46-.56-.82-.97-1.08-.41-.26-.89-.39-1.44-.39s-1.02.13-1.43.39c-.42.26-.74.62-.98,1.08-.23.46-.35.99-.35,1.6s.12,1.14.35,1.6c.23.46.56.82.98,1.08.42.26.9.39,1.43.39s1.02-.13,1.44-.39c.41-.26.74-.62.97-1.08.23-.46.35-.99.35-1.6Z"/>
          <path d="M105.14,66.98c.45,0,.81.09,1.08.27.27.18.46.42.58.73.12.31.18.65.18,1.03v3c0,.08-.03.15-.09.21-.06.06-.13.09-.21.09-.1,0-.17-.03-.22-.09-.05-.06-.08-.13-.08-.21v-2.97c0-.27-.04-.52-.13-.74-.09-.22-.23-.4-.43-.54-.2-.14-.46-.2-.79-.2-.29,0-.57.07-.83.2-.26.14-.47.32-.64.54-.16.22-.24.47-.24.74v2.97c0,.08-.03.15-.09.21-.06.06-.13.09-.21.09-.1,0-.17-.03-.22-.09-.05-.06-.08-.13-.08-.21v-4.57c0-.08.03-.15.09-.21.06-.06.13-.09.22-.09s.16.03.22.09c.06.06.09.13.09.21v.86l-.23.37c.01-.22.08-.43.21-.63.13-.2.29-.38.48-.54.2-.16.42-.29.66-.38s.48-.14.73-.14Z"/>
          <path d="M114.53,65.18c.57,0,1.02.15,1.34.46.32.31.48.74.48,1.29,0,.29-.06.56-.18.82-.12.26-.3.47-.54.63-.24.16-.53.25-.89.27l-.04-.2c.25,0,.5.04.74.11.24.07.46.19.65.34.19.16.34.35.46.59s.17.52.17.85c0,.35-.06.66-.18.91-.12.25-.28.46-.48.62-.2.16-.43.27-.69.35-.26.08-.53.11-.81.11h-2.74c-.08,0-.15-.03-.21-.09-.06-.06-.09-.13-.09-.21v-6.53c0-.08.03-.15.09-.21.06-.06.13-.09.21-.09h2.7ZM114.44,65.78h-2.4l.12-.18v2.89l-.11-.15h2.39c.35,0,.65-.12.89-.35.24-.22.36-.56.36-1,0-.37-.11-.67-.33-.88-.22-.21-.53-.32-.93-.32ZM114.52,68.94h-2.4l.05-.06v2.93l-.06-.09h2.43c.44,0,.8-.11,1.09-.33.29-.22.44-.57.44-1.06,0-.34-.07-.61-.21-.82-.14-.2-.33-.35-.57-.44-.24-.09-.49-.13-.77-.13Z"/>
          <path d="M121.9,67.14c.09,0,.16.03.22.09.06.06.09.13.09.21v2.88c0,.67-.19,1.19-.57,1.54-.38.35-.89.53-1.54.53s-1.15-.18-1.52-.53c-.38-.35-.57-.87-.57-1.54v-2.88c0-.08.03-.15.09-.21.06-.06.13-.09.22-.09s.16.03.22.09c.06.06.09.13.09.21v2.88c0,.49.13.86.39,1.12.26.25.62.38,1.09.38s.84-.13,1.1-.38c.27-.26.4-.63.4-1.12v-2.88c0-.08.03-.15.08-.21.05-.06.13-.09.22-.09Z"/>
          <path d="M124.11,72.32c-.1,0-.17-.03-.22-.09-.05-.06-.08-.13-.08-.21v-4.57c0-.08.03-.15.09-.21.06-.06.13-.09.22-.09s.16.03.22.09c.06.06.09.13.09.21v1.53l-.15.03c.02-.24.08-.47.18-.71.1-.23.23-.45.4-.65.17-.2.37-.36.61-.48.23-.12.5-.18.79-.18.12,0,.24.03.36.08.12.05.17.13.17.25,0,.1-.03.18-.08.24-.05.05-.12.08-.19.08-.06,0-.13-.02-.2-.05-.07-.03-.17-.05-.28-.05-.19,0-.38.06-.57.17-.19.11-.36.26-.52.45-.16.19-.28.4-.37.64s-.14.47-.14.71v2.52c0,.08-.03.15-.09.21-.06.06-.13.09-.21.09Z"/>
          <path d="M127.44,71.49c-.05-.08-.08-.16-.08-.24,0-.08.05-.14.13-.19.05-.05.12-.07.19-.06.07,0,.14.04.2.1.18.24.41.43.67.58s.57.22.93.22c.19,0,.38-.03.57-.1.19-.06.34-.16.46-.3.12-.13.18-.3.18-.5s-.06-.38-.18-.51c-.12-.13-.28-.23-.47-.31-.19-.07-.4-.14-.62-.19-.23-.06-.46-.13-.67-.21-.22-.08-.41-.18-.58-.3-.17-.12-.3-.26-.4-.43-.1-.17-.15-.38-.15-.62,0-.29.08-.54.23-.76.16-.22.37-.39.64-.51.27-.12.57-.18.91-.18.17,0,.35.02.55.07.2.05.39.12.58.22.19.1.36.24.51.42.06.06.09.13.09.21s-.03.15-.1.21c-.05.04-.12.06-.19.06s-.13-.03-.18-.08c-.16-.18-.36-.32-.58-.42-.22-.1-.47-.14-.72-.14-.2,0-.38.03-.56.1-.17.07-.32.16-.43.29-.12.13-.17.3-.17.51.01.2.08.36.21.48.13.12.29.22.5.31.21.08.44.16.7.22.22.05.43.12.63.19.2.07.38.17.53.28.15.11.28.25.37.42.09.17.14.38.14.64,0,.3-.08.56-.25.78-.17.22-.39.38-.67.5s-.59.17-.93.17c-.37,0-.72-.07-1.07-.21-.34-.14-.65-.38-.91-.71Z"/>
          <path d="M136.87,67.11c.09,0,.16.03.22.09.06.06.09.14.09.22v4.59c0,.08-.03.15-.09.21-.06.06-.13.09-.21.09-.09,0-.16-.03-.22-.09-.06-.06-.09-.13-.09-.21v-1.21l.17-.08c0,.19-.05.38-.16.58-.11.2-.25.38-.43.55-.18.17-.4.31-.65.41-.25.11-.52.16-.8.16-.46,0-.88-.12-1.24-.36-.36-.24-.65-.56-.86-.98-.21-.41-.31-.88-.31-1.4s.1-1,.32-1.4c.21-.4.5-.72.86-.95.36-.23.77-.35,1.22-.35.29,0,.57.05.82.15.25.1.48.24.67.42.19.18.34.38.44.61.11.23.16.46.16.71l-.21-.15v-1.29c0-.09.03-.16.09-.22.06-.06.13-.09.22-.09ZM134.75,71.85c.36,0,.68-.09.96-.28.28-.19.5-.45.66-.78.16-.33.24-.7.24-1.11s-.08-.76-.24-1.08c-.16-.32-.38-.57-.66-.76-.28-.19-.6-.29-.96-.29s-.67.09-.95.28c-.28.18-.5.43-.66.75-.16.32-.24.69-.24,1.1s.08.78.24,1.11c.16.33.38.59.66.78.28.19.6.28.96.28Z"/>
          <path d="M142.02,65.18s.1,0,.15.03c.05.02.09.05.13.1l2.82,4.22h-.28s2.83-4.22,2.83-4.22c.08-.1.17-.15.28-.13.08,0,.15.03.21.09.06.06.09.13.09.22v6.53c0,.08-.03.15-.09.21-.06.06-.14.09-.22.09-.1,0-.17-.03-.23-.09-.06-.06-.09-.13-.09-.21v-5.91l.18.02-2.58,3.91s-.05.07-.09.1c-.04.02-.09.03-.14.03-.05,0-.09,0-.14-.03-.04-.02-.08-.06-.11-.1l-2.59-3.95.19-.13v6.06c0,.08-.03.15-.09.21-.06.06-.13.09-.22.09s-.16-.03-.21-.09c-.05-.06-.08-.13-.08-.21v-6.53c0-.08.03-.15.09-.21.06-.06.13-.09.22-.09Z"/>
          <path d="M154.28,67.11c.09,0,.16.03.22.09.06.06.09.14.09.22v4.59c0,.08-.03.15-.09.21-.06.06-.13.09-.21.09-.09,0-.16-.03-.22-.09-.06-.06-.09-.13-.09-.21v-1.21l.17-.08c0,.19-.05.38-.16.58-.11.2-.25.38-.43.55s-.4.31-.65.41c-.25.11-.51.16-.8.16-.46,0-.88-.12-1.24-.36-.36-.24-.65-.56-.86-.98-.21-.41-.31-.88-.31-1.4s.11-1,.32-1.4c.21-.4.5-.72.86-.95.36-.23.77-.35,1.22-.35.29,0,.57.05.82.15.25.1.48.24.67.42.19.18.34.38.44.61.11.23.16.46.16.71l-.21-.15v-1.29c0-.09.03-.16.09-.22.06-.06.13-.09.22-.09ZM152.15,71.85c.36,0,.68-.09.96-.28.28-.19.5-.45.66-.78.16-.33.24-.7.24-1.11s-.08-.76-.24-1.08c-.16-.32-.38-.57-.66-.76-.28-.19-.6-.29-.96-.29s-.67.09-.95.28c-.28.18-.5.43-.66.75-.16.32-.24.69-.24,1.1s.08.78.24,1.11c.16.33.38.59.66.78.28.19.6.28.96.28Z"/>
          <path d="M156.86,72.01c0,.08-.03.15-.09.21-.06.06-.13.09-.21.09-.09,0-.16-.03-.22-.09-.06-.06-.09-.13-.09-.21v-6.94c0-.08.03-.15.09-.21.06-.06.13-.09.21-.09.09,0,.16.03.22.09.06.06.09.13.09.21v6.94Z"/>
          <path d="M162.8,67.11c.09,0,.16.03.22.09.06.06.09.14.09.22v4.59c0,.08-.03.15-.09.21-.06.06-.13.09-.21.09-.09,0-.16-.03-.22-.09-.06-.06-.09-.13-.09-.21v-1.21l.17-.08c0,.19-.05.38-.16.58-.11.2-.25.38-.43.55s-.4.31-.65.41c-.25.11-.52.16-.8.16-.46,0-.87-.12-1.24-.36-.36-.24-.65-.56-.86-.98-.21-.41-.31-.88-.31-1.4s.1-1,.32-1.4c.21-.4.5-.72.86-.95.36-.23.77-.35,1.22-.35.29,0,.57.05.82.15.26.1.48.24.67.42.19.18.34.38.44.61.11.23.16.46.16.71l-.21-.15v-1.29c0-.09.03-.16.09-.22.06-.06.13-.09.22-.09ZM160.68,71.85c.36,0,.68-.09.96-.28.28-.19.5-.45.66-.78.16-.33.24-.7.24-1.11s-.08-.76-.24-1.08c-.16-.32-.38-.57-.66-.76-.28-.19-.6-.29-.96-.29s-.67.09-.95.28c-.28.18-.5.43-.66.75-.16.32-.24.69-.24,1.1s.08.78.24,1.11.38.59.66.78c.28.19.6.28.96.28Z"/>
          <path d="M168.6,67.01c.09,0,.16.03.22.09.06.06.09.13.09.21v4.5c0,.55-.11,1.01-.33,1.39-.22.38-.51.66-.88.86-.37.19-.79.29-1.25.29-.29,0-.56-.03-.81-.1-.25-.06-.45-.15-.61-.25-.08-.05-.14-.11-.18-.17-.04-.07-.04-.14,0-.21.03-.1.09-.16.16-.19.07-.03.14-.03.22,0,.12.06.28.14.5.22.22.09.46.13.74.13.37,0,.7-.08.97-.23.28-.16.49-.38.64-.68.15-.29.22-.65.22-1.05v-.73l.07.24c-.1.21-.25.4-.43.56-.19.16-.4.29-.64.38-.24.09-.5.14-.77.14-.41,0-.75-.08-1.01-.25-.27-.17-.47-.4-.6-.69-.13-.29-.19-.63-.19-1.03v-3.13c0-.08.03-.15.08-.21.05-.06.13-.09.22-.09.09,0,.16.03.22.09.06.06.09.13.09.21v3.04c0,.48.1.84.31,1.1.21.26.54.39,1.01.39.29,0,.56-.07.81-.21.24-.14.45-.32.6-.55.16-.23.23-.47.23-.73v-3.04c0-.08.03-.15.09-.21.06-.06.13-.09.22-.09Z"/>
          <path d="M170.1,71.49c-.05-.08-.08-.16-.08-.24,0-.08.05-.14.13-.19.05-.05.12-.07.19-.06.07,0,.14.04.2.1.18.24.41.43.67.58.26.15.57.22.93.22.19,0,.38-.03.57-.1.19-.06.34-.16.46-.3.12-.13.18-.3.18-.5s-.06-.38-.18-.51c-.12-.13-.28-.23-.47-.31-.19-.07-.4-.14-.62-.19-.23-.06-.46-.13-.67-.21-.22-.08-.41-.18-.58-.3-.17-.12-.3-.26-.4-.43-.1-.17-.15-.38-.15-.62,0-.29.08-.54.23-.76.16-.22.37-.39.64-.51.27-.12.57-.18.91-.18.17,0,.35.02.55.07.2.05.39.12.58.22.19.1.36.24.51.42.06.06.09.13.09.21s-.03.15-.1.21c-.05.04-.12.06-.19.06s-.13-.03-.18-.08c-.16-.18-.36-.32-.58-.42s-.46-.14-.72-.14c-.2,0-.38.03-.56.1-.17.07-.32.16-.43.29-.12.13-.17.3-.17.51.01.2.08.36.21.48.13.12.29.22.5.31.21.08.44.16.7.22.22.05.43.12.63.19.2.07.38.17.53.28s.28.25.37.42c.09.17.14.38.14.64,0,.3-.08.56-.25.78-.17.22-.39.38-.67.5-.28.12-.59.17-.93.17-.37,0-.72-.07-1.07-.21-.34-.14-.65-.38-.91-.71Z"/>
          <path d="M175.47,66.33c-.14,0-.25-.03-.32-.1-.07-.06-.11-.16-.11-.28v-.1c0-.12.04-.22.12-.28.08-.06.19-.1.32-.1.13,0,.23.03.3.1.07.06.11.16.11.28v.1c0,.12-.04.21-.11.28-.07.07-.18.1-.31.1ZM175.78,72.01c0,.08-.03.15-.09.21-.06.06-.13.09-.21.09-.09,0-.16-.03-.22-.09-.06-.06-.09-.13-.09-.21v-4.69c0-.08.03-.15.09-.21.06-.06.13-.09.22-.09s.16.03.22.09c.06.06.09.13.09.21v4.69Z"/>
          <path d="M181.64,67.11c.09,0,.16.03.22.09.06.06.09.14.09.22v4.59c0,.08-.03.15-.09.21-.06.06-.13.09-.21.09-.09,0-.16-.03-.22-.09-.06-.06-.09-.13-.09-.21v-1.21l.17-.08c0,.19-.05.38-.16.58s-.25.38-.43.55c-.18.17-.4.31-.65.41-.25.11-.51.16-.8.16-.46,0-.88-.12-1.24-.36s-.65-.56-.86-.98c-.21-.41-.31-.88-.31-1.4s.11-1,.32-1.4c.21-.4.5-.72.86-.95.36-.23.77-.35,1.22-.35.29,0,.57.05.82.15.25.1.48.24.67.42.19.18.34.38.44.61.11.23.16.46.16.71l-.21-.15v-1.29c0-.09.03-.16.09-.22.06-.06.13-.09.22-.09ZM179.52,71.85c.36,0,.68-.09.96-.28.28-.19.5-.45.66-.78.16-.33.24-.7.24-1.11s-.08-.76-.24-1.08c-.16-.32-.38-.57-.66-.76-.28-.19-.6-.29-.96-.29s-.67.09-.95.28c-.28.18-.5.43-.66.75-.16.32-.24.69-.24,1.1s.08.78.24,1.11c.16.33.38.59.66.78.28.19.6.28.96.28Z"/>
          <path d="M186.31,69.22c-.08,0-.15-.03-.21-.09-.06-.06-.09-.13-.09-.22,0-.08.03-.15.09-.2.06-.05.13-.08.21-.08h4.21c.08,0,.15.03.21.08.06.05.09.13.09.21,0,.07-.03.14-.09.2-.06.06-.13.09-.21.09h-4.21ZM188.41,71.42c-.1,0-.17-.03-.24-.09-.06-.06-.09-.14-.09-.23v-4.31c0-.1.03-.18.1-.25.06-.06.14-.09.23-.09.1,0,.18.03.24.09s.09.14.09.23v4.33c0,.09-.03.17-.09.23-.06.06-.14.09-.23.09Z"/>
          <path d="M196.97,72.42c-.52,0-.96-.08-1.35-.25-.38-.17-.74-.42-1.09-.76-.03-.03-.06-.06-.09-.1-.02-.04-.04-.09-.04-.14,0-.08.03-.16.1-.22.06-.07.14-.1.22-.1s.16.04.22.1c.27.29.57.5.9.65.34.15.7.22,1.09.22.33,0,.62-.05.87-.15.26-.1.46-.25.61-.44.15-.19.22-.41.22-.66,0-.31-.09-.57-.26-.76-.17-.19-.39-.35-.67-.48-.28-.13-.59-.24-.93-.34-.28-.08-.54-.18-.79-.28-.25-.11-.48-.23-.67-.39-.2-.15-.35-.34-.46-.57-.11-.22-.16-.5-.16-.82,0-.36.09-.68.29-.96.19-.28.46-.5.81-.66.35-.16.76-.24,1.22-.24.4,0,.79.07,1.16.2.37.14.66.34.88.6.1.11.15.21.15.3,0,.07-.03.14-.1.2-.07.07-.14.1-.22.1-.07,0-.13-.02-.17-.07-.12-.14-.26-.27-.44-.38-.18-.11-.37-.2-.59-.26-.21-.06-.44-.09-.67-.09-.32,0-.61.05-.86.15-.26.1-.46.24-.6.42s-.22.4-.22.66c0,.29.08.52.25.7.16.18.38.33.64.45.27.12.55.23.85.33.29.08.57.18.84.28.27.11.51.24.71.39.21.16.37.35.49.59.12.24.18.54.18.9s-.1.66-.3.94c-.2.28-.47.5-.81.66-.34.16-.75.25-1.21.26Z"/>
          <path d="M204.14,72.42c-.52,0-1.01-.09-1.46-.28-.45-.18-.84-.44-1.17-.77-.33-.33-.59-.72-.77-1.17-.18-.45-.28-.93-.28-1.46s.09-1.01.28-1.46.44-.84.77-1.17c.33-.33.72-.59,1.17-.77.45-.18.93-.28,1.46-.28.36,0,.71.04,1.05.13.34.09.64.21.9.38.05.03.08.07.11.12.02.04.04.09.04.14,0,.1-.03.17-.09.23-.06.06-.13.09-.19.09-.03,0-.07,0-.1-.02-.03,0-.06-.02-.09-.04-.23-.13-.48-.23-.75-.31-.27-.08-.56-.11-.87-.11-.58,0-1.1.13-1.56.4-.46.27-.81.63-1.07,1.09-.26.46-.39.99-.39,1.57s.13,1.11.39,1.57c.26.46.62.83,1.07,1.09.46.26.98.4,1.56.4.31,0,.61-.04.92-.13.31-.09.58-.21.8-.36l-.05.21v-2.35l.15.14h-1.76c-.09,0-.16-.03-.22-.09-.06-.06-.09-.13-.09-.21,0-.1.03-.17.09-.22.06-.05.14-.08.22-.08h1.95c.09,0,.16.03.22.09s.09.13.09.22v2.46c0,.05-.01.11-.04.15-.03.05-.06.09-.11.12-.3.21-.63.37-1.01.48-.37.12-.76.18-1.16.18Z"/>
          <path d="M207.73,65.15c.11,0,.19.04.25.12l4.85,6.59c.05.06.07.12.07.18,0,.09-.03.17-.1.22-.07.05-.14.08-.21.08-.11,0-.19-.04-.25-.12l-4.86-6.59c-.05-.05-.07-.12-.07-.18,0-.09.03-.16.1-.22.06-.06.14-.09.22-.09ZM207.7,72.35c-.09,0-.16-.03-.2-.09-.05-.06-.07-.12-.07-.18s.02-.13.07-.2l2.35-3.19.33.51-2.22,3.02c-.06.09-.14.13-.25.13ZM212.61,65.15c.08,0,.15.03.21.08.06.05.09.12.09.19,0,.07-.02.13-.07.19l-2.35,3.19-.34-.5,2.21-3.02c.07-.09.15-.13.24-.13Z"/>
        </g>
      </g>
    </g>
  </g>
</svg>