<svg width="447" height="60" viewBox="0 0 447 60" fill="none" xmlns="http://www.w3.org/2000/svg">
<path d="M78.9688 45V12.2727H90.027C92.5945 12.2727 94.6932 12.7361 96.3232 13.663C97.9638 14.5792 99.1783 15.8203 99.9666 17.3864C100.755 18.9524 101.149 20.6996 101.149 22.6278C101.149 24.5561 100.755 26.3086 99.9666 27.8853C99.1889 29.462 97.9851 30.7191 96.3551 31.6566C94.7251 32.5835 92.6371 33.0469 90.0909 33.0469H82.1648V29.5312H89.9631C91.7209 29.5312 93.1325 29.2276 94.1978 28.6204C95.2631 28.0131 96.0355 27.1928 96.5149 26.1594C97.005 25.1154 97.25 23.9382 97.25 22.6278C97.25 21.3175 97.005 20.1456 96.5149 19.1122C96.0355 18.0788 95.2578 17.2692 94.1818 16.6832C93.1058 16.0866 91.6783 15.7884 89.8991 15.7884H82.9318V45H78.9688Z" fill="black"/>
<path d="M107.022 45V20.4545H110.665V24.1619H110.921C111.368 22.9474 112.178 21.962 113.35 21.2056C114.522 20.4492 115.843 20.071 117.313 20.071C117.59 20.071 117.936 20.0763 118.352 20.087C118.767 20.0977 119.082 20.1136 119.295 20.1349V23.9702C119.167 23.9382 118.874 23.8903 118.416 23.8263C117.968 23.7518 117.494 23.7145 116.993 23.7145C115.8 23.7145 114.735 23.9648 113.797 24.4656C112.871 24.9556 112.135 25.6374 111.592 26.511C111.059 27.3739 110.793 28.3594 110.793 29.4673V45H107.022Z" fill="black"/>
<path d="M132.99 45.5114C130.774 45.5114 128.829 44.984 127.157 43.9293C125.495 42.8746 124.195 41.3991 123.258 39.5028C122.331 37.6065 121.867 35.3906 121.867 32.8551C121.867 30.2983 122.331 28.0664 123.258 26.1594C124.195 24.2525 125.495 22.7717 127.157 21.717C128.829 20.6623 130.774 20.1349 132.99 20.1349C135.205 20.1349 137.144 20.6623 138.806 21.717C140.479 22.7717 141.779 24.2525 142.705 26.1594C143.643 28.0664 144.112 30.2983 144.112 32.8551C144.112 35.3906 143.643 37.6065 142.705 39.5028C141.779 41.3991 140.479 42.8746 138.806 43.9293C137.144 44.984 135.205 45.5114 132.99 45.5114ZM132.99 42.1236C134.673 42.1236 136.058 41.6921 137.144 40.8292C138.231 39.9663 139.035 38.8317 139.557 37.4254C140.079 36.0192 140.34 34.4957 140.34 32.8551C140.34 31.2145 140.079 29.6857 139.557 28.2688C139.035 26.8519 138.231 25.7067 137.144 24.8331C136.058 23.9595 134.673 23.5227 132.99 23.5227C131.306 23.5227 129.921 23.9595 128.835 24.8331C127.748 25.7067 126.944 26.8519 126.422 28.2688C125.9 29.6857 125.639 31.2145 125.639 32.8551C125.639 34.4957 125.9 36.0192 126.422 37.4254C126.944 38.8317 127.748 39.9663 128.835 40.8292C129.921 41.6921 131.306 42.1236 132.99 42.1236Z" fill="black"/>
<path d="M149.869 45V20.4545H153.512V24.2898H153.832C154.343 22.9794 155.169 21.962 156.309 21.2376C157.448 20.5025 158.817 20.1349 160.415 20.1349C162.035 20.1349 163.382 20.5025 164.458 21.2376C165.545 21.962 166.392 22.9794 166.999 24.2898H167.255C167.883 23.022 168.826 22.0153 170.083 21.2695C171.34 20.5131 172.848 20.1349 174.606 20.1349C176.8 20.1349 178.595 20.8221 179.991 22.1964C181.387 23.56 182.084 25.6854 182.084 28.5724V45H178.313V28.5724C178.313 26.7614 177.818 25.467 176.827 24.6893C175.836 23.9116 174.67 23.5227 173.327 23.5227C171.601 23.5227 170.264 24.0447 169.316 25.0888C168.368 26.1222 167.894 27.4325 167.894 29.0199V45H164.059V28.1889C164.059 26.7933 163.606 25.6694 162.701 24.8171C161.795 23.9542 160.628 23.5227 159.201 23.5227C158.221 23.5227 157.305 23.7837 156.452 24.3058C155.611 24.8278 154.929 25.5522 154.407 26.479C153.896 27.3952 153.64 28.4553 153.64 29.6591V45H149.869Z" fill="black"/>
<path d="M198.951 45.5114C196.736 45.5114 194.791 44.984 193.119 43.9293C191.457 42.8746 190.157 41.3991 189.22 39.5028C188.293 37.6065 187.829 35.3906 187.829 32.8551C187.829 30.2983 188.293 28.0664 189.22 26.1594C190.157 24.2525 191.457 22.7717 193.119 21.717C194.791 20.6623 196.736 20.1349 198.951 20.1349C201.167 20.1349 203.106 20.6623 204.768 21.717C206.441 22.7717 207.741 24.2525 208.667 26.1594C209.605 28.0664 210.074 30.2983 210.074 32.8551C210.074 35.3906 209.605 37.6065 208.667 39.5028C207.741 41.3991 206.441 42.8746 204.768 43.9293C203.106 44.984 201.167 45.5114 198.951 45.5114ZM198.951 42.1236C200.635 42.1236 202.02 41.6921 203.106 40.8292C204.193 39.9663 204.997 38.8317 205.519 37.4254C206.041 36.0192 206.302 34.4957 206.302 32.8551C206.302 31.2145 206.041 29.6857 205.519 28.2688C204.997 26.8519 204.193 25.7067 203.106 24.8331C202.02 23.9595 200.635 23.5227 198.951 23.5227C197.268 23.5227 195.883 23.9595 194.797 24.8331C193.71 25.7067 192.906 26.8519 192.384 28.2688C191.862 29.6857 191.601 31.2145 191.601 32.8551C191.601 34.4957 191.862 36.0192 192.384 37.4254C192.906 38.8317 193.71 39.9663 194.797 40.8292C195.883 41.6921 197.268 42.1236 198.951 42.1236Z" fill="black"/>
<path d="M226.505 20.4545V23.6506H213.785V20.4545H226.505ZM217.492 14.5739H221.264V37.9688C221.264 39.0341 221.418 39.8331 221.727 40.3658C222.047 40.8878 222.452 41.2393 222.942 41.4205C223.442 41.5909 223.97 41.6761 224.524 41.6761C224.939 41.6761 225.28 41.6548 225.546 41.6122C225.813 41.5589 226.026 41.5163 226.186 41.4844L226.953 44.8722C226.697 44.968 226.34 45.0639 225.882 45.1598C225.424 45.2663 224.843 45.3196 224.14 45.3196C223.075 45.3196 222.031 45.0906 221.008 44.6325C219.996 44.1744 219.154 43.4766 218.483 42.5391C217.823 41.6016 217.492 40.419 217.492 38.9915V14.5739Z" fill="black"/>
<path d="M232.178 45V20.4545H235.949V45H232.178ZM234.096 16.3636C233.361 16.3636 232.727 16.1133 232.194 15.6126C231.672 15.1119 231.411 14.5099 231.411 13.8068C231.411 13.1037 231.672 12.5018 232.194 12.0011C232.727 11.5004 233.361 11.25 234.096 11.25C234.831 11.25 235.459 11.5004 235.981 12.0011C236.514 12.5018 236.78 13.1037 236.78 13.8068C236.78 14.5099 236.514 15.1119 235.981 15.6126C235.459 16.1133 234.831 16.3636 234.096 16.3636Z" fill="black"/>
<path d="M252.828 45.5114C250.613 45.5114 248.668 44.984 246.996 43.9293C245.334 42.8746 244.034 41.3991 243.097 39.5028C242.17 37.6065 241.706 35.3906 241.706 32.8551C241.706 30.2983 242.17 28.0664 243.097 26.1594C244.034 24.2525 245.334 22.7717 246.996 21.717C248.668 20.6623 250.613 20.1349 252.828 20.1349C255.044 20.1349 256.983 20.6623 258.645 21.717C260.318 22.7717 261.617 24.2525 262.544 26.1594C263.482 28.0664 263.951 30.2983 263.951 32.8551C263.951 35.3906 263.482 37.6065 262.544 39.5028C261.617 41.3991 260.318 42.8746 258.645 43.9293C256.983 44.984 255.044 45.5114 252.828 45.5114ZM252.828 42.1236C254.512 42.1236 255.897 41.6921 256.983 40.8292C258.07 39.9663 258.874 38.8317 259.396 37.4254C259.918 36.0192 260.179 34.4957 260.179 32.8551C260.179 31.2145 259.918 29.6857 259.396 28.2688C258.874 26.8519 258.07 25.7067 256.983 24.8331C255.897 23.9595 254.512 23.5227 252.828 23.5227C251.145 23.5227 249.76 23.9595 248.674 24.8331C247.587 25.7067 246.783 26.8519 246.261 28.2688C245.739 29.6857 245.478 31.2145 245.478 32.8551C245.478 34.4957 245.739 36.0192 246.261 37.4254C246.783 38.8317 247.587 39.9663 248.674 40.8292C249.76 41.6921 251.145 42.1236 252.828 42.1236Z" fill="black"/>
<path d="M273.479 30.2344V45H269.707V20.4545H273.351V24.2898H273.67C274.246 23.0433 275.119 22.0419 276.291 21.2855C277.463 20.5185 278.976 20.1349 280.83 20.1349C282.491 20.1349 283.946 20.4759 285.192 21.1577C286.439 21.8288 287.408 22.8516 288.101 24.2259C288.793 25.5895 289.139 27.3153 289.139 29.4034V45H285.368V29.6591C285.368 27.7308 284.867 26.2287 283.866 25.1527C282.864 24.066 281.49 23.5227 279.743 23.5227C278.539 23.5227 277.463 23.7837 276.515 24.3058C275.577 24.8278 274.837 25.5895 274.294 26.5909C273.75 27.5923 273.479 28.8068 273.479 30.2344Z" fill="black"/>
<path d="M320.768 45V42.1236L338.41 15.7884H320.576V12.2727H343.14V15.1491L325.498 41.4844H343.332V45H320.768Z" fill="black"/>
<path d="M359.44 45.5114C357.224 45.5114 355.28 44.984 353.607 43.9293C351.945 42.8746 350.645 41.3991 349.708 39.5028C348.781 37.6065 348.318 35.3906 348.318 32.8551C348.318 30.2983 348.781 28.0664 349.708 26.1594C350.645 24.2525 351.945 22.7717 353.607 21.717C355.28 20.6623 357.224 20.1349 359.44 20.1349C361.656 20.1349 363.595 20.6623 365.257 21.717C366.929 22.7717 368.229 24.2525 369.156 26.1594C370.093 28.0664 370.562 30.2983 370.562 32.8551C370.562 35.3906 370.093 37.6065 369.156 39.5028C368.229 41.3991 366.929 42.8746 365.257 43.9293C363.595 44.984 361.656 45.5114 359.44 45.5114ZM359.44 42.1236C361.123 42.1236 362.508 41.6921 363.595 40.8292C364.681 39.9663 365.486 38.8317 366.008 37.4254C366.53 36.0192 366.791 34.4957 366.791 32.8551C366.791 31.2145 366.53 29.6857 366.008 28.2688C365.486 26.8519 364.681 25.7067 363.595 24.8331C362.508 23.9595 361.123 23.5227 359.44 23.5227C357.757 23.5227 356.372 23.9595 355.285 24.8331C354.198 25.7067 353.394 26.8519 352.872 28.2688C352.35 29.6857 352.089 31.2145 352.089 32.8551C352.089 34.4957 352.35 36.0192 352.872 37.4254C353.394 38.8317 354.198 39.9663 355.285 40.8292C356.372 41.6921 357.757 42.1236 359.44 42.1236Z" fill="black"/>
<path d="M380.09 30.2344V45H376.319V20.4545H379.962V24.2898H380.282C380.857 23.0433 381.731 22.0419 382.903 21.2855C384.074 20.5185 385.587 20.1349 387.441 20.1349C389.103 20.1349 390.557 20.4759 391.803 21.1577C393.05 21.8288 394.019 22.8516 394.712 24.2259C395.404 25.5895 395.751 27.3153 395.751 29.4034V45H391.979V29.6591C391.979 27.7308 391.479 26.2287 390.477 25.1527C389.476 24.066 388.101 23.5227 386.354 23.5227C385.15 23.5227 384.074 23.7837 383.126 24.3058C382.189 24.8278 381.448 25.5895 380.905 26.5909C380.362 27.5923 380.09 28.8068 380.09 30.2344Z" fill="black"/>
<path d="M412.933 45.5114C410.568 45.5114 408.528 44.9893 406.813 43.9453C405.108 42.8906 403.793 41.4205 402.866 39.5348C401.949 37.6385 401.491 35.4332 401.491 32.919C401.491 30.4048 401.949 28.1889 402.866 26.2713C403.793 24.343 405.082 22.8409 406.733 21.7649C408.395 20.6783 410.334 20.1349 412.55 20.1349C413.828 20.1349 415.09 20.348 416.337 20.7741C417.583 21.2003 418.718 21.8928 419.741 22.8516C420.763 23.7997 421.578 25.0568 422.186 26.6229C422.793 28.1889 423.097 30.1172 423.097 32.4077V34.0057H404.176V30.7457H419.261C419.261 29.3608 418.984 28.125 418.43 27.0384C417.887 25.9517 417.109 25.0941 416.097 24.4656C415.096 23.837 413.913 23.5227 412.55 23.5227C411.048 23.5227 409.748 23.8956 408.651 24.6413C407.564 25.3764 406.728 26.3352 406.142 27.5178C405.556 28.7003 405.263 29.968 405.263 31.321V33.4943C405.263 35.348 405.582 36.9194 406.222 38.2085C406.871 39.4869 407.772 40.4616 408.922 41.1328C410.073 41.7933 411.41 42.1236 412.933 42.1236C413.924 42.1236 414.819 41.9851 415.618 41.7081C416.427 41.4205 417.125 40.9943 417.711 40.4297C418.297 39.8544 418.75 39.1406 419.07 38.2884L422.713 39.3111C422.329 40.5469 421.685 41.6335 420.779 42.571C419.874 43.4979 418.755 44.2223 417.424 44.7443C416.092 45.2557 414.595 45.5114 412.933 45.5114Z" fill="black"/>
<path d="M446.22 25.9517L442.832 26.9105C442.619 26.3459 442.305 25.7972 441.889 25.2646C441.484 24.7212 440.93 24.2738 440.227 23.9222C439.524 23.5707 438.624 23.3949 437.527 23.3949C436.024 23.3949 434.773 23.7411 433.771 24.4336C432.78 25.1154 432.285 25.9837 432.285 27.0384C432.285 27.9759 432.626 28.7163 433.308 29.2596C433.99 29.8029 435.055 30.2557 436.504 30.6179L440.147 31.5128C442.342 32.0455 443.977 32.8604 445.053 33.9577C446.129 35.0444 446.667 36.4453 446.667 38.1605C446.667 39.5668 446.262 40.8239 445.453 41.9318C444.654 43.0398 443.535 43.9134 442.097 44.5526C440.659 45.1918 438.986 45.5114 437.079 45.5114C434.576 45.5114 432.503 44.968 430.863 43.8814C429.222 42.7947 428.184 41.2074 427.747 39.1193L431.326 38.2244C431.667 39.5455 432.312 40.5362 433.26 41.1967C434.219 41.8572 435.47 42.1875 437.015 42.1875C438.773 42.1875 440.169 41.8146 441.202 41.0689C442.246 40.3125 442.768 39.407 442.768 38.3523C442.768 37.5 442.47 36.7862 441.873 36.2109C441.277 35.625 440.36 35.1882 439.125 34.9006L435.034 33.9418C432.786 33.4091 431.135 32.5835 430.08 31.4648C429.036 30.3356 428.514 28.924 428.514 27.2301C428.514 25.8452 428.903 24.62 429.68 23.5547C430.469 22.4893 431.539 21.6531 432.892 21.0458C434.256 20.4386 435.801 20.1349 437.527 20.1349C439.956 20.1349 441.863 20.6676 443.247 21.733C444.643 22.7983 445.634 24.2045 446.22 25.9517Z" fill="black"/>
<g clip-path="url(#clip0_18996_79)">
<path fill-rule="evenodd" clip-rule="evenodd" d="M29.6692 0L0 29.8269L29.6692 60L60 29.59L29.6692 0ZM30.7735 3.57104L56.8402 29.2014L36.6999 23.7632L30.7735 3.57104ZM4.00517 28.0982L18.954 19.2426L28.4367 3.56174L4.00517 28.0982ZM24.2857 36.6891L39.2696 40.6171L29.6765 56.7664L24.2857 36.6891ZM28.8375 56.7279L3.83598 31.3283L23.3942 36.4554L28.8375 56.7279ZM29.199 58.0744L29.11 58.1636L29.2231 58.164L29.199 58.0744ZM56.8066 29.8925L40.9887 38.9229L36.9644 24.6372L56.8066 29.8925ZM35.1673 24.1613L39.3473 38.9998L23.8127 34.9273L19.8314 20.0996L35.1673 24.1613ZM54.2572 33.2377L32.8424 54.6133L40.9086 40.9337L54.2572 33.2377ZM3.00215 29.4811L22.9332 34.7051L19.0632 20.1244L3.00215 29.4811ZM34.9512 23.2972L29.3387 3.47701L19.8792 19.2944L34.9512 23.2972Z" fill="url(#paint0_linear_18996_79)"/>
</g>
<defs>
<linearGradient id="paint0_linear_18996_79" x1="-3.56175" y1="24.2919" x2="24.6584" y2="62.2048" gradientUnits="userSpaceOnUse">
<stop/>
<stop offset="0.575" stop-color="#4F823C"/>
</linearGradient>
<clipPath id="clip0_18996_79">
<rect width="60" height="60" fill="white"/>
</clipPath>
</defs>
</svg>
