<svg width="24" height="24" viewBox="0 0 24 24" fill="none" xmlns="http://www.w3.org/2000/svg">
<g clip-path="url(#clip0_18012_289233)">
<rect width="24" height="24" fill="white"/>
<path d="M19.7184 5.8896L20.4864 3.8016H24V0H0V24H24V20.208H20.688L19.464 18.768L18.192 20.208H8.784V12.5856H5.6784L9.5616 3.8016H13.3344L14.2464 5.7936V3.8016H18.936L19.7184 5.8896ZM17.0736 7.272V6.432L17.3952 7.272L18.9552 11.4384H20.496L22.08 7.272L22.3824 6.4416V11.4384H24V5.04H21.288L20.0544 8.2896L19.728 9.168L19.392 8.2896L18.1536 5.04H15.4416V11.4384H17.0736V7.272ZM13.56 11.4384H15.4416L12.624 5.04H10.44L7.608 11.4384H9.4656L9.9456 10.2096H13.0512L13.5312 11.4384H13.56ZM11.1936 7.2L11.52 6.408L11.832 7.2L12.48 8.8224H10.512L11.1936 7.2ZM10.08 12.5904V18.9696H15.4416V17.5824H11.7264V16.4736H15.36V15.096H11.7264V13.9776H15.4416V12.5904H10.08ZM21.384 18.9696H23.52L20.5248 15.768L23.52 12.5904H21.4176L19.4976 14.664L17.5776 12.5904H15.4416L18.4224 15.792L15.4416 18.9696H17.5056L19.4496 16.8864L21.3696 18.9696H21.384ZM22.1904 15.7584L24 17.6016V13.944L22.1904 15.7584Z" fill="#006FCF"/>
</g>
<defs>
<clipPath id="clip0_18012_289233">
<rect width="24" height="24" fill="white"/>
</clipPath>
</defs>
</svg>
