<svg width="24" height="24" viewBox="0 0 24 24" fill="none" xmlns="http://www.w3.org/2000/svg">
<path fill-rule="evenodd" clip-rule="evenodd" d="M16.2425 7.75725C16.6331 8.14777 16.6331 8.78094 16.2425 9.17146L13.4141 11.9999L16.2425 14.8283C16.6331 15.2188 16.6331 15.852 16.2425 16.2425C15.852 16.6331 15.2188 16.6331 14.8283 16.2425L11.9999 13.4141L9.17146 16.2425C8.78094 16.6331 8.14777 16.6331 7.75725 16.2425C7.36672 15.852 7.36672 15.2188 7.75725 14.8283L10.5857 11.9999L7.75725 9.17146C7.36672 8.78094 7.36672 8.14777 7.75725 7.75725C8.14777 7.36673 8.78094 7.36673 9.17146 7.75725L11.9999 10.5857L14.8283 7.75725C15.2188 7.36672 15.852 7.36672 16.2425 7.75725Z" fill="#B8B8B8"/>
</svg>
