<svg width="16" height="16" viewBox="0 0 16 16" fill="none" xmlns="http://www.w3.org/2000/svg">
<path d="M14.6668 8.00004C14.6668 11.6819 11.6821 14.6667 8.00016 14.6667C4.31826 14.6667 1.3335 11.6819 1.3335 8.00004C1.3335 4.31814 4.31826 1.33337 8.00016 1.33337C11.6821 1.33337 14.6668 4.31814 14.6668 8.00004Z" fill="#86B1D6"/>
<path fill-rule="evenodd" clip-rule="evenodd" d="M11.2324 5.76764C11.5448 6.08006 11.5448 6.58659 11.2324 6.89901L7.89905 10.2323C7.58663 10.5448 7.0801 10.5448 6.76768 10.2323L5.10101 8.56568C4.78859 8.25326 4.78859 7.74673 5.10101 7.43431C5.41343 7.12189 5.91997 7.12189 6.23238 7.43431L7.33337 8.53529L10.101 5.76764C10.4134 5.45522 10.92 5.45522 11.2324 5.76764Z" fill="white"/>
</svg>
