<svg width="16" height="16" viewBox="0 0 16 16" fill="none" xmlns="http://www.w3.org/2000/svg">
<path d="M14.6668 8.00004C14.6668 11.6819 11.6821 14.6667 8.00016 14.6667C4.31826 14.6667 1.3335 11.6819 1.3335 8.00004C1.3335 4.31814 4.31826 1.33337 8.00016 1.33337C11.6821 1.33337 14.6668 4.31814 14.6668 8.00004Z" fill="#384B9F"/>
<path fill-rule="evenodd" clip-rule="evenodd" d="M4.37158 8.00001C4.37158 7.55818 4.72975 7.20001 5.17158 7.20001H7.20001L7.20001 5.17158C7.20001 4.72975 7.55818 4.37158 8.00001 4.37158C8.44184 4.37158 8.80001 4.72975 8.80001 5.17158V7.20001L10.8284 7.20001C11.2703 7.20001 11.6284 7.55818 11.6284 8.00001C11.6284 8.44184 11.2703 8.80001 10.8284 8.80001H8.80001V10.8284C8.80001 11.2703 8.44184 11.6284 8.00001 11.6284C7.55818 11.6284 7.20001 11.2703 7.20001 10.8284L7.20001 8.80001H5.17158C4.72975 8.80001 4.37158 8.44184 4.37158 8.00001Z" fill="white"/>
</svg>
