<svg width="24" height="25" viewBox="0 0 24 25" fill="none" xmlns="http://www.w3.org/2000/svg">
<path d="M22 12.5C22 18.0228 17.5228 22.5 12 22.5C6.47715 22.5 2 18.0228 2 12.5C2 6.97715 6.47715 2.5 12 2.5C17.5228 2.5 22 6.97715 22 12.5Z" fill="#384B9F"/>
<path fill-rule="evenodd" clip-rule="evenodd" d="M16.8486 9.15152C17.3172 9.62015 17.3172 10.3799 16.8486 10.8486L11.8486 15.8486C11.3799 16.3172 10.6201 16.3172 10.1515 15.8486L7.65152 13.3486C7.18289 12.8799 7.18289 12.1202 7.65152 11.6515C8.12015 11.1829 8.87995 11.1829 9.34858 11.6515L11 13.303L15.1515 9.15152C15.6201 8.68289 16.3799 8.68289 16.8486 9.15152Z" fill="white"/>
</svg>
