<svg width="60" height="24" viewBox="0 0 60 24" fill="none" xmlns="http://www.w3.org/2000/svg">
<g clip-path="url(#clip0_18012_289232)">
<path fill-rule="evenodd" clip-rule="evenodd" d="M25.0797 3.57373L21.5049 19.7476H25.8264L29.3996 3.57373H25.0797Z" fill="#1434CB"/>
<path fill-rule="evenodd" clip-rule="evenodd" d="M48.1204 3.57373C47.3044 3.57373 46.6165 4.04182 46.3097 4.76017L39.9258 19.7476H44.3915L45.2802 17.3329H50.7374L51.253 19.7476H55.1889L51.7542 3.57373H48.1204ZM48.7449 7.94298L50.0337 14.0163H46.5042L48.7449 7.94298Z" fill="#1434CB"/>
<path d="M14.4176 14.5654L18.7316 3.57373H23.084L19.7265 11.6483L16.3034 19.7476H11.9968L8.68356 6.83559C8.4834 6.04223 8.3093 5.75037 7.69946 5.41662C6.70304 4.87015 5.05814 4.35933 3.61035 4.04266L3.70896 3.57373H10.7612C11.6592 3.57373 12.4678 4.17618 12.6726 5.2194L14.4176 14.5654Z" fill="#1434CB"/>
<path fill-rule="evenodd" clip-rule="evenodd" d="M30.0629 8.38901C30.0336 10.7147 32.1261 12.0125 33.7022 12.7841C35.3218 13.576 35.8658 14.0837 35.8596 14.7916C35.8472 15.8752 34.5676 16.3534 33.3701 16.372C31.2807 16.4045 30.066 15.8053 29.1002 15.352L28.3477 18.8901C29.3166 19.3389 31.1107 19.7301 32.9713 19.7472C37.3385 19.7472 40.1957 17.5814 40.2113 14.2234C40.2283 9.96179 34.3436 9.72576 34.3838 7.82084C34.3977 7.24332 34.9462 6.62694 36.1486 6.47016C36.7434 6.39101 38.3861 6.33044 40.2483 7.19204L40.9792 3.76887C39.9779 3.40244 38.6906 3.05151 37.0881 3.05151C32.9775 3.05151 30.0862 5.24673 30.0629 8.38901Z" fill="#1434CB"/>
<path fill-rule="evenodd" clip-rule="evenodd" d="M14.1367 12.965L12.8166 5.2194C12.6086 4.17618 11.7871 3.57373 10.8749 3.57373H3.71053L3.61035 4.04266C5.08114 4.35933 7.07177 5.11422 8.08404 5.66069C10.7156 7.08138 12.9071 9.56935 14.1367 12.965Z" fill="#1434CB"/>
<path fill-rule="evenodd" clip-rule="evenodd" d="M14.1367 12.965L12.8166 5.2194C12.6086 4.17618 11.7871 3.57373 10.8749 3.57373H3.71053L3.61035 4.04266C5.08114 4.35933 7.07177 5.11422 8.08404 5.66069C10.7156 7.08138 12.9071 9.56935 14.1367 12.965Z" fill="#1434CB"/>
</g>
<defs>
<clipPath id="clip0_18012_289232">
<rect width="60" height="24" fill="white"/>
</clipPath>
</defs>
</svg>
