<svg width="1229" height="742" viewBox="0 0 1229 742" fill="none" xmlns="http://www.w3.org/2000/svg">
<path opacity="0.25" d="M1252.31 320.835C1067.47 235.823 788.927 157.46 620.729 143.085C375.728 121.446 183.976 143.085 214.953 392.707C251.307 684.061 384.431 940.174 608.184 938.938C831.939 937.7 2227.45 769.536 1252.31 320.835Z" fill="url(#paint0_linear_2038_8250)"/>
<path opacity="0.5" d="M839.362 167.352C729.79 217.121 336.814 413.265 235.177 588.849C133.541 764.434 437.427 951.457 680.122 947.593C922.82 943.728 1149.9 801.221 1149.9 801.221C2200.57 296.259 1101.52 48.183 839.362 167.352Z" fill="url(#paint1_linear_2038_8250)"/>
<defs>
<linearGradient id="paint0_linear_2038_8250" x1="1489.93" y1="172.468" x2="598.778" y2="1355.91" gradientUnits="userSpaceOnUse">
<stop offset="0.337" stop-color="#1570EF"/>
<stop offset="1" stop-color="#4FD9FF"/>
</linearGradient>
<linearGradient id="paint1_linear_2038_8250" x1="905.643" y1="137.86" x2="905.643" y2="947.651" gradientUnits="userSpaceOnUse">
<stop stop-color="#4FD9FF"/>
<stop offset="1" stop-color="#C8FFFF" stop-opacity="0"/>
</linearGradient>
</defs>
</svg>
