<svg width="90" height="90" viewBox="0 0 90 90" fill="none" xmlns="http://www.w3.org/2000/svg">
<g id="coin-hand">
<path id="Icon" d="M29.8481 75.7813C29.3237 75.9546 29.039 76.5202 29.2123 77.0446C29.3856 77.569 29.9512 77.8536 30.4756 77.6803L29.8481 75.7813ZM51.9832 78.1731L51.8932 77.1771L51.9832 78.1731ZM65.076 75.2885L65.5115 76.1886L65.076 75.2885ZM77.5864 64.0052L76.812 63.3726L77.5864 64.0052ZM69.03 56.9452L69.7341 57.6554L69.03 56.9452ZM63.2683 62.6577L63.9723 63.3678L63.2683 62.6577ZM47.6189 64.1923C47.0666 64.1923 46.6189 64.64 46.6189 65.1923C46.6189 65.7446 47.0666 66.1923 47.6189 66.1923V64.1923ZM76.2562 56.2358L75.7048 57.0701L76.2562 56.2358ZM34.5901 54.3433L35.0342 55.2393L34.5901 54.3433ZM50.2503 52.923L50.5113 51.9577L50.2503 52.923ZM56.3658 54.5766L56.1048 55.542H56.1048L56.3658 54.5766ZM58.3035 61.8107L57.5994 61.1006L58.3035 61.8107ZM54.1886 64.4822C53.7964 64.871 53.7937 65.5042 54.1826 65.8964C54.5714 66.2886 55.2046 66.2913 55.5968 65.9025L54.1886 64.4822ZM30.4756 77.6803C31.3733 77.3836 32.6654 77.3206 34.3192 77.4376C35.9527 77.5531 37.8212 77.8331 39.8276 78.1455C43.7821 78.7613 48.2861 79.5111 52.0732 79.169L51.8932 77.1771C48.4065 77.4921 44.1819 76.7995 40.1353 76.1693C38.1411 75.8588 36.1909 75.5649 34.4603 75.4425C32.75 75.3216 31.1325 75.3568 29.8481 75.7813L30.4756 77.6803ZM52.0732 79.169C57.806 78.6512 60.112 78.8011 65.5115 76.1886L64.6405 74.3883C59.6264 76.8142 57.7 76.6527 51.8932 77.1771L52.0732 79.169ZM65.5115 76.1886C70.2651 73.8887 75.2133 68.4909 78.3609 64.6379L76.812 63.3726C73.6547 67.2375 68.9518 72.3024 64.6405 74.3883L65.5115 76.1886ZM68.3259 56.2351L62.5642 61.9475L63.9723 63.3678L69.7341 57.6554L68.3259 56.2351ZM57.0963 64.1923H47.6189V66.1923H57.0963V64.1923ZM62.5642 61.9475C61.1155 63.3839 59.1488 64.1923 57.0963 64.1923V66.1923C59.6737 66.1923 62.1472 65.1773 63.9723 63.3678L62.5642 61.9475ZM76.8076 55.4016C74.1421 53.6398 70.5934 53.9871 68.3259 56.2351L69.7341 57.6554C71.3273 56.0758 73.8275 55.8293 75.7048 57.0701L76.8076 55.4016ZM78.3609 64.6379C80.7741 61.6838 79.9134 57.4544 76.8076 55.4016L75.7048 57.0701C77.9067 58.5255 78.4137 61.412 76.812 63.3726L78.3609 64.6379ZM14.1595 51.7692H25.7976V49.7692H14.1595V51.7692ZM27.7071 53.6539V79.6154H29.7071V53.6539H27.7071ZM25.7976 81.5H14.1595V83.5H25.7976V81.5ZM12.25 79.6154V53.6539H10.25V79.6154H12.25ZM14.1595 81.5C13.0968 81.5 12.25 80.6482 12.25 79.6154H10.25C10.25 81.7689 12.0085 83.5 14.1595 83.5V81.5ZM27.7071 79.6154C27.7071 80.6482 26.8603 81.5 25.7976 81.5V83.5C27.9486 83.5 29.7071 81.7689 29.7071 79.6154H27.7071ZM25.7976 51.7692C26.8603 51.7692 27.7071 52.6211 27.7071 53.6539H29.7071C29.7071 51.5004 27.9486 49.7692 25.7976 49.7692V51.7692ZM14.1595 49.7692C12.0085 49.7692 10.25 51.5004 10.25 53.6539H12.25C12.25 52.6211 13.0968 51.7692 14.1595 51.7692V49.7692ZM30.606 57.4344L35.0342 55.2393L34.1459 53.4473L29.7177 55.6425L30.606 57.4344ZM43.6983 53.2115H44.8915V51.2115H43.6983V53.2115ZM49.9893 53.8884L56.1048 55.542L56.6268 53.6113L50.5113 51.9577L49.9893 53.8884ZM57.5994 61.1006L54.1886 64.4822L55.5968 65.9025L59.0076 62.5208L57.5994 61.1006ZM56.1048 55.542C58.602 56.2172 59.4156 59.3 57.5994 61.1006L59.0076 62.5208C61.9304 59.623 60.5955 54.6844 56.6268 53.6113L56.1048 55.542ZM44.8915 53.2115C46.6136 53.2115 48.328 53.4392 49.9893 53.8884L50.5113 51.9577C48.6797 51.4625 46.7898 51.2115 44.8915 51.2115V53.2115ZM35.0342 55.2393C37.7239 53.9059 40.6903 53.2115 43.6983 53.2115V51.2115C40.3827 51.2115 37.1122 51.9769 34.1459 53.4473L35.0342 55.2393ZM65.5308 30.5769C65.5308 36.3891 60.7761 41.1154 54.8927 41.1154V43.1154C61.8644 43.1154 67.5308 37.5098 67.5308 30.5769H65.5308ZM54.8927 41.1154C49.0094 41.1154 44.2547 36.3891 44.2547 30.5769H42.2547C42.2547 37.5098 47.921 43.1154 54.8927 43.1154V41.1154ZM44.2547 30.5769C44.2547 24.7648 49.0094 20.0385 54.8927 20.0385V18.0385C47.921 18.0385 42.2547 23.644 42.2547 30.5769H44.2547ZM54.8927 20.0385C60.7761 20.0385 65.5308 24.7648 65.5308 30.5769H67.5308C67.5308 23.644 61.8644 18.0385 54.8927 18.0385V20.0385ZM43.2547 29.5769C37.3713 29.5769 32.6166 24.8506 32.6166 19.0385H30.6166C30.6166 25.9713 36.283 31.5769 43.2547 31.5769V29.5769ZM32.6166 19.0385C32.6166 13.2263 37.3713 8.5 43.2547 8.5V6.5C36.283 6.5 30.6166 12.1056 30.6166 19.0385H32.6166ZM43.2547 8.5C49.138 8.5 53.8927 13.2263 53.8927 19.0385H55.8927C55.8927 12.1056 50.2263 6.5 43.2547 6.5V8.5Z" fill="black"/>
</g>
</svg>
