<svg xmlns="http://www.w3.org/2000/svg" width="107.339" height="96.605" viewBox="0 0 107.339 96.605">
  <path id="Path_1" data-name="Path 1" d="M106.158,40.725A26.835,26.835,0,0,0,80.5,21.833H26.835A26.835,26.835,0,0,0,1.181,40.725,27.9,27.9,0,0,0,0,48.668V91.6a26.844,26.844,0,0,0,26.835,26.835H80.5A26.844,26.844,0,0,0,107.339,91.6V48.668a27.888,27.888,0,0,0-1.18-7.943ZM26.835,32.567H80.5A16.146,16.146,0,0,1,96.39,46.092L53.669,69.384,10.948,46.092A16.146,16.146,0,0,1,26.835,32.567ZM96.605,91.6a16.148,16.148,0,0,1-16.1,16.1H26.835a16.148,16.148,0,0,1-16.1-16.1V58.221l40.359,22a5.462,5.462,0,0,0,5.152,0l40.359-22Z" transform="translate(0 -21.833)" fill="#F47F01"/>
</svg>