<svg width="160" height="46" viewBox="0 0 160 46" fill="none" xmlns="http://www.w3.org/2000/svg">
<mask id="mask0_704_16247" style="mask-type:alpha" maskUnits="userSpaceOnUse" x="0" y="0" width="46" height="46">
<rect width="45.7143" height="46" rx="3" fill="#061742"/>
</mask>
<g mask="url(#mask0_704_16247)">
<path fill-rule="evenodd" clip-rule="evenodd" d="M43.5714 45.2813H45V43.8438H43.5714V45.2813ZM43.5714 46H42.8571H41.4286H40.7143H39.2857H38.5714H37.1429H36.4286H35H34.2857H32.8571H32.1429H30.7143H30H28.5714H27.8571H26.4286H25.7143H24.2857H23.5714H22.1429H21.4286H20H19.2857H17.8571H17.1429H15.7143H15H13.5714H12.8571H11.4286H10.7143H9.28571H8.57143H7.14286H6.42857H5H4.28571H2.85714H2.14286H0.714286H0L0 45.2813L0 43.8438L0 43.125L0 41.6875L0 40.9688L0 39.5313L0 38.8125L0 37.375L0 36.6563L0 35.2188L0 34.5L0 33.0625L0 32.3438L0 30.9063L0 30.1875L0 28.75L0 28.0313L0 26.5938L0 25.875L0 24.4375L0 23.7188L0 22.2813L0 21.5625L0 20.125L0 19.4063L0 17.9688L0 17.25L0 15.8125L0 15.0938L0 13.6563L0 12.9375L0 11.5L0 10.7813L0 9.34375L0 8.625L0 7.1875L0 6.46875L0 5.03125L0 4.3125L0 2.875L0 2.15625L0 0.718754L0 3.8147e-06L0.714286 0L2.14286 3.8147e-06H2.85714H4.28571H5H6.42857H7.14286H8.57143H9.28571H10.7143H11.4286H12.8571H13.5714H15H15.7143H17.1429H17.8571H19.2857H20H21.4286H22.1429H23.5714H24.2857H25.7143H26.4286H27.8571H28.5714H30H30.7143H32.1429H32.8571H34.2857H35H36.4286H37.1429H38.5714H39.2857H40.7143H41.4286H42.8571H43.5714H45H45.7143V0.718754V2.15625V2.875V4.3125V5.03125V6.46875V7.1875V8.625V9.34375V10.7813V11.5V12.9375V13.6563V15.0938V15.8125V17.25V17.9688V19.4063V20.125V21.5625V22.2813V23.7188V24.4375V25.875V26.5938V28.0313V28.75V30.1875V30.9063V32.3438V33.0625V34.5V35.2188V36.6563V37.375V38.8125V39.5313V40.9688V41.6875V43.125V43.8438V45.2813V46H45H43.5714ZM45 43.125V41.6875H43.5714V43.125H45ZM42.8571 43.125V41.6875H41.4286V43.125H42.8571ZM40.7143 43.125V41.6875H39.2857V43.125H40.7143ZM39.2857 43.8438H40.7143V45.2813H39.2857V43.8438ZM38.5714 43.125V41.6875H37.1429V43.125H38.5714ZM37.1429 43.8438H38.5714V45.2813H37.1429V43.8438ZM36.4286 43.125V41.6875H35V43.125H36.4286ZM35 43.8438H36.4286V45.2813H35V43.8438ZM34.2857 43.125V41.6875H32.8571V43.125H34.2857ZM32.8571 43.8438H34.2857V45.2813H32.8571V43.8438ZM32.1429 43.125V41.6875H30.7143V43.125H32.1429ZM30.7143 43.8438H32.1429V45.2813H30.7143V43.8438ZM30 43.125V41.6875H28.5714V43.125H30ZM28.5714 43.8438H30V45.2813H28.5714V43.8438ZM27.8571 43.125V41.6875H26.4286V43.125H27.8571ZM26.4286 43.8438H27.8571V45.2813H26.4286V43.8438ZM25.7143 43.125V41.6875H24.2857V43.125H25.7143ZM24.2857 43.8438H25.7143V45.2813H24.2857V43.8438ZM23.5714 43.125V41.6875H22.1429V43.125H23.5714ZM22.1429 43.8438H23.5714V45.2813H22.1429V43.8438ZM21.4286 43.125V41.6875H20V43.125H21.4286ZM20 43.8438H21.4286V45.2813H20V43.8438ZM19.2857 43.125V41.6875H17.8571V43.125H19.2857ZM17.8571 43.8438H19.2857V45.2813H17.8571V43.8438ZM17.1429 43.125V41.6875H15.7143V43.125H17.1429ZM15.7143 43.8438H17.1429V45.2813H15.7143V43.8438ZM15 43.125V41.6875H13.5714V43.125H15ZM13.5714 43.8438H15V45.2813H13.5714V43.8438ZM12.8571 43.125V41.6875H11.4286V43.125H12.8571ZM11.4286 43.8438H12.8571V45.2813H11.4286V43.8438ZM10.7143 43.125V41.6875H9.28571V43.125H10.7143ZM9.28571 43.8438H10.7143V45.2813H9.28571V43.8438ZM8.57143 43.125V41.6875H7.14286V43.125H8.57143ZM7.14286 43.8438H8.57143V45.2813H7.14286V43.8438ZM6.42857 43.125V41.6875H5V43.125H6.42857ZM5 43.8438H6.42857V45.2813H5V43.8438ZM4.28571 43.125V41.6875H2.85714L2.85714 43.125H4.28571ZM2.85714 43.8438H4.28571V45.2813H2.85714V43.8438ZM2.14286 43.125L2.14286 41.6875H0.714286V43.125H2.14286ZM0.714286 43.8438H2.14286V45.2813H0.714286L0.714286 43.8438ZM0.714286 40.9688H2.14286V39.5313H0.714286L0.714286 40.9688ZM0.714286 38.8125H2.14286V37.375H0.714286L0.714286 38.8125ZM0.714286 36.6563H2.14286V35.2188H0.714286L0.714286 36.6563ZM0.714286 34.5H2.14286V33.0625H0.714286L0.714286 34.5ZM0.714286 32.3438H2.14286V30.9063H0.714286L0.714286 32.3438ZM0.714286 30.1875H2.14286V28.75H0.714286V30.1875ZM0.714286 28.0313H2.14286L2.14286 26.5938H0.714286L0.714286 28.0313ZM0.714286 25.875H2.14286V24.4375H0.714286L0.714286 25.875ZM0.714286 23.7188H2.14286V22.2813H0.714286L0.714286 23.7188ZM0.714286 21.5625H2.14286L2.14286 20.125H0.714286L0.714286 21.5625ZM0.714286 19.4063H2.14286V17.9688H0.714286V19.4063ZM0.714286 17.25H2.14286V15.8125H0.714286L0.714286 17.25ZM0.714286 15.0938H2.14286V13.6563H0.714286L0.714286 15.0938ZM0.714286 12.9375H2.14286V11.5H0.714286L0.714286 12.9375ZM0.714286 10.7813H2.14286V9.34375H0.714286L0.714286 10.7813ZM0.714286 8.625H2.14286V7.1875H0.714286L0.714286 8.625ZM0.714286 6.46875H2.14286L2.14286 5.03125H0.714286V6.46875ZM0.714286 4.3125H2.14286V2.875H0.714286L0.714286 4.3125ZM0.714286 2.15625H2.14286V0.718754H0.714286L0.714286 2.15625ZM2.85714 0.718754V2.15625H4.28571V0.718754H2.85714ZM5 0.718754V2.15625H6.42857V0.718754H5ZM7.14286 0.718754V2.15625H8.57143V0.718754H7.14286ZM9.28571 0.718754V2.15625H10.7143V0.718754H9.28571ZM11.4286 0.718754V2.15625H12.8571V0.718754H11.4286ZM13.5714 0.718754V2.15625H15V0.718754H13.5714ZM15.7143 0.718754V2.15625H17.1429V0.718754H15.7143ZM17.8571 0.718754V2.15625H19.2857V0.718754H17.8571ZM20 0.718754V2.15625H21.4286V0.718754H20ZM22.1429 0.718754V2.15625H23.5714V0.718754H22.1429ZM24.2857 0.718754V2.15625H25.7143V0.718754H24.2857ZM26.4286 0.718754V2.15625H27.8571V0.718754H26.4286ZM28.5714 0.718754V2.15625H30V0.718754H28.5714ZM30.7143 0.718754V2.15625H32.1429V0.718754H30.7143ZM32.8571 0.718754V2.15625H34.2857V0.718754H32.8571ZM35 0.718754V2.15625H36.4286V0.718754H35ZM37.1429 0.718754V2.15625H38.5714V0.718754H37.1429ZM39.2857 0.718754V2.15625H40.7143V0.718754H39.2857ZM41.4286 0.718754V2.15625H42.8571V0.718754H41.4286ZM43.5714 0.718754V2.15625H45V0.718754H43.5714ZM45 2.875H43.5714V4.3125H45V2.875ZM45 5.03125H43.5714V6.46875H45V5.03125ZM45 7.1875H43.5714V8.625H45V7.1875ZM45 9.34375H43.5714V10.7813H45V9.34375ZM45 11.5H43.5714V12.9375H45V11.5ZM45 13.6563H43.5714V15.0938H45V13.6563ZM45 15.8125H43.5714V17.25H45V15.8125ZM45 17.9688H43.5714V19.4063H45V17.9688ZM45 20.125H43.5714V21.5625H45V20.125ZM45 22.2813H43.5714V23.7188H45V22.2813ZM45 24.4375H43.5714V25.875H45V24.4375ZM45 26.5938H43.5714V28.0313H45V26.5938ZM45 28.75H43.5714V30.1875H45V28.75ZM45 30.9063H43.5714V32.3438H45V30.9063ZM45 33.0625H43.5714V34.5H45V33.0625ZM45 35.2188H43.5714V36.6563H45V35.2188ZM45 37.375H43.5714V38.8125H45V37.375ZM45 39.5313H43.5714V40.9688H45V39.5313ZM42.8571 40.9688V39.5313H41.4286V40.9688H42.8571ZM40.7143 40.9688V39.5313H39.2857V40.9688H40.7143ZM38.5714 40.9688V39.5313H37.1429V40.9688H38.5714ZM36.4286 40.9688V39.5313H35V40.9688H36.4286ZM34.2857 40.9688V39.5313H32.8571V40.9688H34.2857ZM32.1429 40.9688V39.5313H30.7143V40.9688H32.1429ZM30 40.9688V39.5313H28.5714V40.9688H30ZM27.8571 40.9688V39.5313H26.4286V40.9688H27.8571ZM25.7143 40.9688V39.5313H24.2857V40.9688H25.7143ZM23.5714 40.9688V39.5313H22.1429V40.9688H23.5714ZM21.4286 40.9688V39.5313H20V40.9688H21.4286ZM19.2857 40.9688V39.5313H17.8571V40.9688H19.2857ZM17.1429 40.9688V39.5313H15.7143V40.9688H17.1429ZM15 40.9688V39.5313H13.5714V40.9688H15ZM12.8571 40.9688V39.5313H11.4286V40.9688H12.8571ZM10.7143 40.9688V39.5313H9.28571V40.9688H10.7143ZM8.57143 40.9688V39.5313H7.14286V40.9688H8.57143ZM6.42857 40.9688V39.5313H5V40.9688H6.42857ZM4.28571 40.9688V39.5313H2.85714V40.9688H4.28571ZM2.85714 38.8125H4.28571L4.28571 37.375H2.85714V38.8125ZM2.85714 36.6563H4.28571V35.2188H2.85714V36.6563ZM2.85714 34.5H4.28571V33.0625H2.85714V34.5ZM2.85714 32.3438H4.28571V30.9063H2.85714V32.3438ZM2.85714 30.1875H4.28571V28.75H2.85714V30.1875ZM2.85714 28.0313H4.28571V26.5938H2.85714L2.85714 28.0313ZM2.85714 25.875H4.28571V24.4375H2.85714V25.875ZM2.85714 23.7188H4.28571V22.2813H2.85714V23.7188ZM2.85714 21.5625H4.28571V20.125H2.85714L2.85714 21.5625ZM2.85714 19.4063H4.28571V17.9688H2.85714V19.4063ZM2.85714 17.25H4.28571V15.8125H2.85714V17.25ZM2.85714 15.0938H4.28571V13.6563H2.85714V15.0938ZM2.85714 12.9375H4.28571V11.5H2.85714V12.9375ZM2.85714 10.7813H4.28571L4.28571 9.34375H2.85714V10.7813ZM2.85714 8.625H4.28571V7.1875H2.85714V8.625ZM2.85714 6.46875H4.28571V5.03125H2.85714L2.85714 6.46875ZM2.85714 4.3125H4.28571V2.875H2.85714V4.3125ZM5 2.875V4.3125H6.42857V2.875H5ZM7.14286 2.875V4.3125H8.57143V2.875H7.14286ZM9.28571 2.875V4.3125H10.7143V2.875H9.28571ZM11.4286 2.875V4.3125H12.8571V2.875H11.4286ZM13.5714 2.875V4.3125H15V2.875H13.5714ZM15.7143 2.875V4.3125H17.1429V2.875H15.7143ZM17.8571 2.875V4.3125H19.2857V2.875H17.8571ZM20 2.875V4.3125H21.4286V2.875H20ZM22.1429 2.875V4.3125H23.5714V2.875H22.1429ZM24.2857 2.875V4.3125H25.7143V2.875H24.2857ZM26.4286 2.875V4.3125H27.8571V2.875H26.4286ZM28.5714 2.875V4.3125H30V2.875H28.5714ZM30.7143 2.875V4.3125H32.1429V2.875H30.7143ZM32.8571 2.875V4.3125H34.2857V2.875H32.8571ZM35 2.875V4.3125H36.4286V2.875H35ZM37.1429 2.875V4.3125H38.5714V2.875H37.1429ZM39.2857 2.875V4.3125H40.7143V2.875H39.2857ZM41.4286 2.875V4.3125H42.8571V2.875H41.4286ZM42.8571 5.03125H41.4286V6.46875H42.8571V5.03125ZM42.8571 7.1875H41.4286V8.625H42.8571V7.1875ZM42.8571 9.34375H41.4286V10.7813H42.8571V9.34375ZM42.8571 11.5H41.4286V12.9375H42.8571V11.5ZM42.8571 13.6563H41.4286V15.0938H42.8571V13.6563ZM42.8571 15.8125H41.4286V17.25H42.8571V15.8125ZM42.8571 17.9688H41.4286V19.4063H42.8571V17.9688ZM42.8571 20.125H41.4286V21.5625H42.8571V20.125ZM42.8571 22.2813H41.4286V23.7188H42.8571V22.2813ZM42.8571 24.4375H41.4286V25.875H42.8571V24.4375ZM42.8571 26.5938H41.4286V28.0313H42.8571V26.5938ZM42.8571 28.75H41.4286V30.1875H42.8571V28.75ZM42.8571 30.9063H41.4286V32.3438H42.8571V30.9063ZM42.8571 33.0625H41.4286V34.5H42.8571V33.0625ZM42.8571 35.2188H41.4286V36.6563H42.8571V35.2188ZM42.8571 37.375H41.4286V38.8125H42.8571V37.375ZM40.7143 38.8125V37.375H39.2857V38.8125H40.7143ZM38.5714 38.8125V37.375H37.1429V38.8125H38.5714ZM36.4286 38.8125V37.375H35V38.8125H36.4286ZM34.2857 38.8125V37.375H32.8571V38.8125H34.2857ZM32.1429 38.8125V37.375H30.7143V38.8125H32.1429ZM30 38.8125V37.375H28.5714V38.8125H30ZM27.8571 38.8125V37.375H26.4286V38.8125H27.8571ZM25.7143 38.8125V37.375H24.2857V38.8125H25.7143ZM23.5714 38.8125V37.375H22.1429V38.8125H23.5714ZM21.4286 38.8125V37.375H20V38.8125H21.4286ZM19.2857 38.8125V37.375H17.8571V38.8125H19.2857ZM17.1429 38.8125V37.375H15.7143V38.8125H17.1429ZM15 38.8125V37.375H13.5714V38.8125H15ZM12.8571 38.8125V37.375H11.4286V38.8125H12.8571ZM10.7143 38.8125V37.375H9.28571V38.8125H10.7143ZM8.57143 38.8125V37.375H7.14286L7.14286 38.8125H8.57143ZM6.42857 38.8125L6.42857 37.375H5L5 38.8125H6.42857ZM5 36.6563H6.42857V35.2188H5V36.6563ZM5 34.5H6.42857V33.0625H5V34.5ZM5 32.3438H6.42857V30.9063H5V32.3438ZM5 30.1875H6.42857V28.75H5V30.1875ZM5 28.0313H6.42857V26.5938H5V28.0313ZM5 25.875H6.42857V24.4375H5V25.875ZM5 23.7188H6.42857V22.2813H5V23.7188ZM5 21.5625H6.42857V20.125H5V21.5625ZM5 19.4063H6.42857V17.9688H5V19.4063ZM5 17.25H6.42857V15.8125H5V17.25ZM5 15.0938H6.42857V13.6563H5V15.0938ZM5 12.9375H6.42857V11.5H5V12.9375ZM5 10.7813H6.42857L6.42857 9.34375H5L5 10.7813ZM5 8.625H6.42857V7.1875H5V8.625ZM5 6.46875H6.42857V5.03125H5V6.46875ZM7.14286 5.03125V6.46875H8.57143V5.03125H7.14286ZM9.28571 5.03125V6.46875H10.7143V5.03125H9.28571ZM11.4286 5.03125V6.46875H12.8571V5.03125H11.4286ZM13.5714 5.03125V6.46875H15V5.03125H13.5714ZM15.7143 5.03125V6.46875H17.1429V5.03125H15.7143ZM17.8571 5.03125V6.46875H19.2857V5.03125H17.8571ZM20 5.03125V6.46875H21.4286V5.03125H20ZM22.1429 5.03125V6.46875H23.5714V5.03125H22.1429ZM24.2857 5.03125V6.46875H25.7143V5.03125H24.2857ZM26.4286 5.03125V6.46875H27.8571V5.03125H26.4286ZM28.5714 5.03125V6.46875H30V5.03125H28.5714ZM30.7143 5.03125V6.46875H32.1429V5.03125H30.7143ZM32.8571 5.03125V6.46875H34.2857V5.03125H32.8571ZM35 5.03125V6.46875H36.4286V5.03125H35ZM37.1429 5.03125V6.46875H38.5714V5.03125H37.1429ZM39.2857 5.03125V6.46875H40.7143V5.03125H39.2857ZM40.7143 7.1875H39.2857V8.625H40.7143V7.1875ZM40.7143 9.34375H39.2857V10.7813H40.7143V9.34375ZM40.7143 11.5H39.2857V12.9375H40.7143V11.5ZM40.7143 13.6563H39.2857V15.0938H40.7143V13.6563ZM40.7143 15.8125H39.2857V17.25H40.7143V15.8125ZM40.7143 17.9688H39.2857V19.4063H40.7143V17.9688ZM40.7143 20.125H39.2857V21.5625H40.7143V20.125ZM40.7143 22.2813H39.2857V23.7188H40.7143V22.2813ZM40.7143 24.4375H39.2857V25.875H40.7143V24.4375ZM40.7143 26.5938H39.2857V28.0313H40.7143V26.5938ZM40.7143 28.75H39.2857V30.1875H40.7143V28.75ZM40.7143 30.9063H39.2857V32.3438H40.7143V30.9063ZM40.7143 33.0625H39.2857V34.5H40.7143V33.0625ZM40.7143 35.2188H39.2857V36.6563H40.7143V35.2188ZM38.5714 36.6563V35.2188H37.1429V36.6563H38.5714ZM36.4286 36.6563V35.2188H35V36.6563H36.4286ZM34.2857 36.6563V35.2188H32.8571V36.6563H34.2857ZM32.1429 36.6563V35.2188H30.7143V36.6563H32.1429ZM30 36.6563V35.2188H28.5714V36.6563H30ZM27.8571 36.6563V35.2188H26.4286V36.6563H27.8571ZM25.7143 36.6563V35.2188H24.2857V36.6563H25.7143ZM23.5714 36.6563V35.2188H22.1429V36.6563H23.5714ZM21.4286 36.6563V35.2188H20V36.6563H21.4286ZM19.2857 36.6563V35.2188H17.8571V36.6563H19.2857ZM17.1429 36.6563V35.2188H15.7143V36.6563H17.1429ZM15 36.6563V35.2188H13.5714V36.6563H15ZM12.8571 36.6563V35.2188H11.4286V36.6563H12.8571ZM10.7143 36.6563V35.2188H9.28571V36.6563H10.7143ZM8.57143 36.6563V35.2188H7.14286V36.6563H8.57143ZM7.14286 34.5H8.57143V33.0625H7.14286V34.5ZM7.14286 32.3438H8.57143L8.57143 30.9063H7.14286V32.3438ZM7.14286 30.1875H8.57143V28.75H7.14286V30.1875ZM7.14286 28.0313H8.57143V26.5938H7.14286V28.0313ZM7.14286 25.875H8.57143V24.4375H7.14286V25.875ZM7.14286 23.7188H8.57143V22.2813H7.14286V23.7188ZM7.14286 21.5625H8.57143V20.125H7.14286V21.5625ZM7.14286 19.4063H8.57143V17.9688H7.14286V19.4063ZM7.14286 17.25H8.57143V15.8125H7.14286V17.25ZM7.14286 15.0938H8.57143V13.6563H7.14286V15.0938ZM7.14286 12.9375H8.57143V11.5H7.14286V12.9375ZM7.14286 10.7813H8.57143V9.34375H7.14286L7.14286 10.7813ZM7.14286 8.625H8.57143V7.1875H7.14286V8.625ZM9.28571 7.1875V8.625H10.7143V7.1875H9.28571ZM11.4286 7.1875V8.625H12.8571V7.1875H11.4286ZM13.5714 7.1875V8.625H15V7.1875H13.5714ZM15.7143 7.1875V8.625H17.1429V7.1875H15.7143ZM17.8571 7.1875V8.625H19.2857V7.1875H17.8571ZM20 7.1875V8.625H21.4286V7.1875H20ZM22.1429 7.1875V8.625H23.5714V7.1875H22.1429ZM24.2857 7.1875V8.625H25.7143V7.1875H24.2857ZM26.4286 7.1875V8.625H27.8571V7.1875H26.4286ZM28.5714 7.1875V8.625H30V7.1875H28.5714ZM30.7143 7.1875V8.625H32.1429V7.1875H30.7143ZM32.8571 7.1875V8.625H34.2857V7.1875H32.8571ZM35 7.1875V8.625H36.4286V7.1875H35ZM37.1429 7.1875V8.625H38.5714V7.1875H37.1429ZM38.5714 9.34375H37.1429V10.7813H38.5714V9.34375ZM38.5714 11.5H37.1429V12.9375H38.5714V11.5ZM38.5714 13.6563H37.1429V15.0938H38.5714V13.6563ZM38.5714 15.8125H37.1429V17.25H38.5714V15.8125ZM38.5714 17.9688H37.1429V19.4063H38.5714V17.9688ZM38.5714 20.125H37.1429V21.5625H38.5714V20.125ZM38.5714 22.2813H37.1429V23.7188H38.5714V22.2813ZM38.5714 24.4375H37.1429V25.875H38.5714V24.4375ZM38.5714 26.5938H37.1429V28.0313H38.5714V26.5938ZM38.5714 28.75H37.1429V30.1875H38.5714V28.75ZM38.5714 30.9063H37.1429V32.3438H38.5714V30.9063ZM38.5714 33.0625H37.1429V34.5H38.5714V33.0625ZM36.4286 34.5V33.0625H35V34.5H36.4286ZM34.2857 34.5V33.0625H32.8571V34.5H34.2857ZM32.1429 34.5V33.0625H30.7143V34.5H32.1429ZM30 34.5V33.0625H28.5714V34.5H30ZM27.8571 34.5V33.0625H26.4286V34.5H27.8571ZM25.7143 34.5V33.0625H24.2857V34.5H25.7143ZM23.5714 34.5V33.0625H22.1429V34.5H23.5714ZM21.4286 34.5V33.0625H20V34.5H21.4286ZM19.2857 34.5V33.0625H17.8571V34.5H19.2857ZM17.1429 34.5V33.0625H15.7143V34.5H17.1429ZM15 34.5V33.0625H13.5714V34.5H15ZM12.8571 34.5V33.0625H11.4286V34.5H12.8571ZM10.7143 34.5V33.0625H9.28571V34.5H10.7143ZM9.28571 32.3438H10.7143L10.7143 30.9063H9.28571L9.28571 32.3438ZM9.28571 30.1875H10.7143V28.75H9.28571V30.1875ZM9.28571 28.0313H10.7143V26.5938H9.28571V28.0313ZM9.28571 25.875H10.7143V24.4375H9.28571V25.875ZM9.28571 23.7188H10.7143V22.2813H9.28571V23.7188ZM9.28571 21.5625H10.7143V20.125H9.28571V21.5625ZM9.28571 19.4063H10.7143V17.9688H9.28571V19.4063ZM9.28571 17.25H10.7143V15.8125H9.28571V17.25ZM9.28571 15.0938H10.7143V13.6563H9.28571V15.0938ZM9.28571 12.9375H10.7143V11.5H9.28571V12.9375ZM9.28571 10.7813H10.7143V9.34375H9.28571V10.7813ZM11.4286 9.34375V10.7813H12.8571V9.34375H11.4286ZM13.5714 9.34375V10.7813H15V9.34375H13.5714ZM15.7143 9.34375V10.7813H17.1429V9.34375H15.7143ZM17.8571 9.34375V10.7813H19.2857V9.34375H17.8571ZM20 9.34375V10.7813H21.4286V9.34375H20ZM22.1429 9.34375V10.7813H23.5714V9.34375H22.1429ZM24.2857 9.34375V10.7813H25.7143V9.34375H24.2857ZM26.4286 9.34375V10.7813H27.8571V9.34375H26.4286ZM28.5714 9.34375V10.7813H30V9.34375H28.5714ZM30.7143 9.34375V10.7813H32.1429V9.34375H30.7143ZM32.8571 9.34375V10.7813H34.2857V9.34375H32.8571ZM35 9.34375V10.7813H36.4286V9.34375H35ZM36.4286 11.5H35V12.9375H36.4286V11.5ZM36.4286 13.6563H35V15.0938H36.4286V13.6563ZM36.4286 15.8125H35V17.25H36.4286V15.8125ZM36.4286 17.9688H35V19.4063H36.4286V17.9688ZM36.4286 20.125H35V21.5625H36.4286V20.125ZM36.4286 22.2813H35V23.7188H36.4286V22.2813ZM36.4286 24.4375H35V25.875H36.4286V24.4375ZM36.4286 26.5938H35V28.0313H36.4286V26.5938ZM36.4286 28.75H35V30.1875H36.4286V28.75ZM36.4286 30.9063H35V32.3438H36.4286V30.9063ZM34.2857 32.3438V30.9063H32.8571V32.3438H34.2857ZM32.1429 32.3438V30.9063H30.7143V32.3438H32.1429ZM30 32.3438V30.9063H28.5714V32.3438H30ZM27.8571 32.3438V30.9063H26.4286V32.3438H27.8571ZM25.7143 32.3438V30.9063H24.2857V32.3438H25.7143ZM23.5714 32.3438V30.9063H22.1429V32.3438H23.5714ZM21.4286 32.3438V30.9063H20V32.3438H21.4286ZM19.2857 32.3438V30.9063H17.8571V32.3438H19.2857ZM17.1429 32.3438V30.9063H15.7143L15.7143 32.3438H17.1429ZM15 32.3438L15 30.9063H13.5714L13.5714 32.3438H15ZM12.8571 32.3438L12.8571 30.9063H11.4286L11.4286 32.3438H12.8571ZM11.4286 30.1875H12.8571V28.75H11.4286V30.1875ZM11.4286 28.0313H12.8571V26.5938H11.4286V28.0313ZM11.4286 25.875H12.8571V24.4375H11.4286V25.875ZM11.4286 23.7188H12.8571V22.2813H11.4286V23.7188ZM11.4286 21.5625H12.8571V20.125H11.4286V21.5625ZM11.4286 19.4063H12.8571V17.9688H11.4286V19.4063ZM11.4286 17.25H12.8571V15.8125H11.4286V17.25ZM11.4286 15.0938H12.8571V13.6563H11.4286V15.0938ZM11.4286 12.9375H12.8571V11.5H11.4286V12.9375ZM13.5714 11.5V12.9375H15V11.5H13.5714ZM15.7143 11.5V12.9375H17.1429V11.5H15.7143ZM17.8571 11.5V12.9375H19.2857V11.5H17.8571ZM20 11.5V12.9375H21.4286V11.5H20ZM22.1429 11.5V12.9375H23.5714V11.5H22.1429ZM24.2857 11.5V12.9375H25.7143V11.5H24.2857ZM26.4286 11.5V12.9375H27.8571V11.5H26.4286ZM28.5714 11.5V12.9375H30V11.5H28.5714ZM30.7143 11.5V12.9375H32.1429V11.5H30.7143ZM32.8571 11.5V12.9375H34.2857V11.5H32.8571ZM34.2857 13.6563H32.8571V15.0938H34.2857V13.6563ZM34.2857 15.8125H32.8571V17.25H34.2857V15.8125ZM34.2857 17.9688H32.8571V19.4063H34.2857V17.9688ZM34.2857 20.125H32.8571V21.5625H34.2857V20.125ZM34.2857 22.2813H32.8571V23.7188H34.2857V22.2813ZM34.2857 24.4375H32.8571V25.875H34.2857V24.4375ZM34.2857 26.5938H32.8571V28.0313H34.2857V26.5938ZM34.2857 28.75H32.8571V30.1875H34.2857V28.75ZM32.1429 30.1875V28.75H30.7143V30.1875H32.1429ZM30 30.1875V28.75L28.5714 28.75V30.1875H30ZM27.8571 30.1875V28.75H26.4286V30.1875H27.8571ZM25.7143 30.1875V28.75H24.2857V30.1875H25.7143ZM23.5714 30.1875V28.75H22.1429V30.1875H23.5714ZM21.4286 30.1875V28.75H20V30.1875H21.4286ZM19.2857 30.1875V28.75H17.8571V30.1875H19.2857ZM17.1429 30.1875V28.75H15.7143V30.1875H17.1429ZM15 30.1875V28.75H13.5714V30.1875H15ZM13.5714 28.0313H15V26.5938H13.5714V28.0313ZM13.5714 25.875H15V24.4375H13.5714V25.875ZM13.5714 23.7188H15V22.2813H13.5714V23.7188ZM13.5714 21.5625H15V20.125H13.5714V21.5625ZM13.5714 19.4063H15V17.9688H13.5714V19.4063ZM13.5714 17.25H15V15.8125H13.5714V17.25ZM13.5714 15.0938H15V13.6563H13.5714V15.0938ZM15.7143 13.6563V15.0938H17.1429V13.6563H15.7143ZM17.8571 13.6563V15.0938H19.2857V13.6563H17.8571ZM20 13.6563V15.0938H21.4286V13.6563H20ZM22.1429 13.6563V15.0938H23.5714V13.6563H22.1429ZM24.2857 13.6563V15.0938H25.7143V13.6563H24.2857ZM26.4286 13.6563V15.0938H27.8571V13.6563H26.4286ZM28.5714 13.6563V15.0938L30 15.0938V13.6563H28.5714ZM30.7143 13.6563V15.0938H32.1429V13.6563H30.7143ZM32.1429 15.8125H30.7143L30.7143 17.25H32.1429V15.8125ZM32.1429 17.9688H30.7143V19.4063H32.1429V17.9688ZM32.1429 20.125H30.7143V21.5625H32.1429V20.125ZM32.1429 22.2813H30.7143V23.7188H32.1429V22.2813ZM32.1429 24.4375H30.7143V25.875H32.1429V24.4375ZM32.1429 26.5938H30.7143V28.0313H32.1429V26.5938ZM30 28.0313V26.5938L28.5714 26.5938V28.0313L30 28.0313ZM27.8571 28.0313V26.5938H26.4286V28.0313H27.8571ZM25.7143 28.0313V26.5938H24.2857V28.0313H25.7143ZM23.5714 28.0313V26.5938H22.1429V28.0313H23.5714ZM21.4286 28.0313V26.5938H20V28.0313H21.4286ZM19.2857 28.0313V26.5938H17.8571V28.0313H19.2857ZM17.1429 28.0313V26.5938H15.7143V28.0313H17.1429ZM15.7143 25.875H17.1429V24.4375H15.7143V25.875ZM15.7143 23.7188H17.1429V22.2813H15.7143V23.7188ZM15.7143 21.5625H17.1429V20.125H15.7143V21.5625ZM15.7143 19.4063H17.1429V17.9688H15.7143V19.4063ZM15.7143 17.25H17.1429L17.1429 15.8125H15.7143V17.25ZM17.8571 15.8125L17.8571 17.25H19.2857L19.2857 15.8125H17.8571ZM20 15.8125L20 17.25H21.4286L21.4286 15.8125H20ZM22.1429 15.8125L22.1429 17.25H23.5714L23.5714 15.8125H22.1429ZM24.2857 15.8125L24.2857 17.25H25.7143L25.7143 15.8125H24.2857ZM26.4286 15.8125L26.4286 17.25H27.8571L27.8571 15.8125H26.4286ZM28.5714 15.8125L28.5714 17.25L30 17.25L30 15.8125L28.5714 15.8125ZM30 17.9688L28.5714 17.9688V19.4063L30 19.4063V17.9688ZM30 20.125L28.5714 20.125V21.5625L30 21.5625V20.125ZM30 22.2813L28.5714 22.2813V23.7188L30 23.7188V22.2813ZM30 24.4375L28.5714 24.4375V25.875L30 25.875V24.4375ZM27.8571 25.875V24.4375H26.4286V25.875H27.8571ZM25.7143 25.875V24.4375H24.2857V25.875H25.7143ZM23.5714 25.875V24.4375H22.1429V25.875H23.5714ZM21.4286 25.875V24.4375H20V25.875H21.4286ZM19.2857 25.875V24.4375H17.8571V25.875H19.2857ZM17.8571 23.7188H19.2857V22.2813H17.8571V23.7188ZM17.8571 21.5625H19.2857V20.125H17.8571V21.5625ZM17.8571 19.4063H19.2857V17.9688H17.8571V19.4063ZM20 17.9688V19.4063H21.4286V17.9688H20ZM22.1429 17.9688V19.4063H23.5714V17.9688H22.1429ZM24.2857 17.9688V19.4063H25.7143V17.9688H24.2857ZM26.4286 17.9688V19.4063H27.8571V17.9688H26.4286ZM27.8571 20.125H26.4286V21.5625H27.8571V20.125ZM27.8571 22.2813H26.4286V23.7188H27.8571V22.2813ZM25.7143 23.7188V22.2813H24.2857V23.7188H25.7143ZM23.5714 23.7188V22.2813H22.1429V23.7188H23.5714ZM21.4286 23.7188V22.2813H20V23.7188H21.4286ZM20 21.5625H21.4286V20.125H20V21.5625ZM22.1429 20.125V21.5625H23.5714V20.125H22.1429ZM24.2857 20.125V21.5625H25.7143V20.125H24.2857ZM41.4286 45.2813V43.8438H42.8571V45.2813H41.4286Z" fill="#061742"/>
</g>
<path d="M8.57141 39.5312H19.2571V30.6581H26.121C34.3535 30.6581 40 26.0673 40 17.009C40 11.6666 36.7547 4.3125 27.0283 4.3125H8.57141V39.5312ZM19.2571 13.0481H27.8681V22.1821H19.2571V13.0481Z" fill="#061742"/>
<path d="M49.0063 11.3716H55.1386C56.3508 11.3716 57.328 11.7148 58.0702 12.4014C58.8124 13.0817 59.1835 14.0404 59.1835 15.2773C59.1835 16.3411 58.8526 17.2689 58.1908 18.0605C57.529 18.846 56.5116 19.2388 55.1386 19.2388H50.8524V25H49.0063V11.3716ZM57.3188 15.2866C57.3188 14.2847 56.9477 13.6043 56.2055 13.2456C55.7973 13.0539 55.2375 12.958 54.5263 12.958H50.8524V17.6802H54.5263C55.355 17.6802 56.0261 17.5039 56.5395 17.1514C57.059 16.7988 57.3188 16.1772 57.3188 15.2866ZM61.2802 11.3252H62.9501V16.4092C63.3459 15.9082 63.7016 15.5557 64.017 15.3516C64.5551 14.999 65.2261 14.8228 66.0302 14.8228C67.4713 14.8228 68.4485 15.3268 68.9618 16.335C69.2401 16.8854 69.3793 17.6493 69.3793 18.6265V25H67.663V18.7378C67.663 18.008 67.5702 17.473 67.3847 17.1328C67.0816 16.5885 66.5126 16.3164 65.6776 16.3164C64.9849 16.3164 64.3572 16.5545 63.7943 17.0308C63.2315 17.507 62.9501 18.4069 62.9501 19.7305V25H61.2802V11.3252ZM71.8563 15.1104H73.5541V25H71.8563V15.1104ZM71.8563 11.3716H73.5541V13.2642H71.8563V11.3716ZM76.1332 11.3716H77.8031V25H76.1332V11.3716ZM80.3637 11.3716H82.0336V25H80.3637V11.3716ZM84.5478 15.1104H86.2455V25H84.5478V15.1104ZM84.5478 11.3716H86.2455V13.2642H84.5478V11.3716ZM92.9716 23.8774C93.7509 23.8774 94.3972 23.5527 94.9105 22.9033C95.4301 22.2477 95.6898 21.2705 95.6898 19.9717C95.6898 19.18 95.5754 18.4997 95.3466 17.9307C94.9136 16.8359 94.122 16.2886 92.9716 16.2886C91.815 16.2886 91.0233 16.8669 90.5966 18.0234C90.3677 18.6419 90.2533 19.4274 90.2533 20.3799C90.2533 21.1468 90.3677 21.7993 90.5966 22.3374C91.0295 23.3641 91.8212 23.8774 92.9716 23.8774ZM88.6483 15.1104H90.2719V16.4277C90.6059 15.9762 90.9708 15.6268 91.3666 15.3794C91.9294 15.0083 92.5912 14.8228 93.352 14.8228C94.4776 14.8228 95.4332 15.2557 96.2187 16.1216C97.0041 16.9813 97.3969 18.2121 97.3969 19.814C97.3969 21.9787 96.831 23.5249 95.6991 24.4526C94.9817 25.0402 94.1467 25.334 93.1942 25.334C92.4459 25.334 91.8181 25.1701 91.3109 24.8423C91.0141 24.6567 90.6832 24.3382 90.3183 23.8867V28.9614H88.6483V15.1104ZM105.32 11.0005C107.045 11.0005 108.384 11.4551 109.337 12.3643C110.289 13.2734 110.818 14.3063 110.923 15.4629H109.123C108.919 14.5846 108.511 13.8888 107.899 13.3755C107.293 12.8621 106.439 12.6055 105.338 12.6055C103.996 12.6055 102.911 13.0786 102.082 14.0249C101.259 14.965 100.848 16.4092 100.848 18.3574C100.848 19.9531 101.219 21.2489 101.961 22.2446C102.71 23.2342 103.823 23.729 105.301 23.729C106.662 23.729 107.698 23.2064 108.409 22.1611C108.786 21.6107 109.068 20.887 109.253 19.9902H111.053C110.892 21.4251 110.36 22.6281 109.457 23.5991C108.375 24.7681 106.915 25.3525 105.079 25.3525C103.495 25.3525 102.165 24.8732 101.089 23.9146C99.6729 22.6466 98.9647 20.6891 98.9647 18.042C98.9647 16.0319 99.4966 14.3836 100.56 13.0972C101.711 11.6994 103.297 11.0005 105.32 11.0005ZM114.365 22.356C114.365 22.8384 114.541 23.2188 114.894 23.4971C115.246 23.7754 115.664 23.9146 116.146 23.9146C116.734 23.9146 117.303 23.7785 117.853 23.5063C118.781 23.0549 119.245 22.3158 119.245 21.2891V19.9438C119.041 20.0737 118.778 20.182 118.456 20.2686C118.135 20.3551 117.819 20.417 117.51 20.4541L116.499 20.584C115.893 20.6644 115.438 20.7912 115.135 20.9644C114.622 21.255 114.365 21.7189 114.365 22.356ZM118.41 18.979C118.794 18.9295 119.05 18.7687 119.18 18.4966C119.254 18.3481 119.291 18.1348 119.291 17.8564C119.291 17.2874 119.087 16.8761 118.679 16.6226C118.277 16.3628 117.699 16.2329 116.944 16.2329C116.072 16.2329 115.454 16.4679 115.089 16.938C114.885 17.1978 114.752 17.5843 114.69 18.0977H113.131C113.162 16.873 113.558 16.0226 114.319 15.5464C115.086 15.064 115.973 14.8228 116.981 14.8228C118.15 14.8228 119.1 15.0454 119.829 15.4907C120.553 15.936 120.915 16.6287 120.915 17.5688V23.293C120.915 23.4661 120.949 23.6053 121.017 23.7104C121.091 23.8156 121.243 23.8682 121.472 23.8682C121.546 23.8682 121.629 23.8651 121.722 23.8589C121.815 23.8465 121.914 23.8311 122.019 23.8125V25.0464C121.759 25.1206 121.561 25.167 121.425 25.1855C121.289 25.2041 121.104 25.2134 120.869 25.2134C120.293 25.2134 119.876 25.0093 119.616 24.6011C119.48 24.3846 119.384 24.0785 119.329 23.6826C118.988 24.1279 118.5 24.5145 117.863 24.8423C117.226 25.1701 116.524 25.334 115.757 25.334C114.835 25.334 114.081 25.0557 113.493 24.499C112.912 23.9362 112.621 23.2342 112.621 22.3931C112.621 21.4715 112.909 20.7572 113.484 20.25C114.059 19.7428 114.814 19.4305 115.747 19.313L118.41 18.979ZM127.854 23.8774C128.634 23.8774 129.28 23.5527 129.793 22.9033C130.313 22.2477 130.573 21.2705 130.573 19.9717C130.573 19.18 130.458 18.4997 130.229 17.9307C129.796 16.8359 129.005 16.2886 127.854 16.2886C126.698 16.2886 125.906 16.8669 125.479 18.0234C125.251 18.6419 125.136 19.4274 125.136 20.3799C125.136 21.1468 125.251 21.7993 125.479 22.3374C125.912 23.3641 126.704 23.8774 127.854 23.8774ZM123.531 15.1104H125.155V16.4277C125.489 15.9762 125.854 15.6268 126.249 15.3794C126.812 15.0083 127.474 14.8228 128.235 14.8228C129.36 14.8228 130.316 15.2557 131.101 16.1216C131.887 16.9813 132.28 18.2121 132.28 19.814C132.28 21.9787 131.714 23.5249 130.582 24.4526C129.864 25.0402 129.03 25.334 128.077 25.334C127.329 25.334 126.701 25.1701 126.194 24.8423C125.897 24.6567 125.566 24.3382 125.201 23.8867V28.9614H123.531V15.1104ZM134.237 15.1104H135.935V25H134.237V15.1104ZM134.237 11.3716H135.935V13.2642H134.237V11.3716ZM138.802 12.29H140.49V15.064H142.077V16.4277H140.49V22.9126C140.49 23.259 140.608 23.4909 140.843 23.6084C140.973 23.6764 141.189 23.7104 141.492 23.7104C141.572 23.7104 141.659 23.7104 141.752 23.7104C141.845 23.7043 141.953 23.695 142.077 23.6826V25C141.885 25.0557 141.684 25.0959 141.474 25.1206C141.269 25.1453 141.047 25.1577 140.806 25.1577C140.026 25.1577 139.497 24.9598 139.219 24.564C138.941 24.1619 138.802 23.6424 138.802 23.0054V16.4277H137.456V15.064H138.802V12.29ZM145.036 22.356C145.036 22.8384 145.212 23.2188 145.565 23.4971C145.917 23.7754 146.335 23.9146 146.817 23.9146C147.405 23.9146 147.974 23.7785 148.524 23.5063C149.452 23.0549 149.916 22.3158 149.916 21.2891V19.9438C149.712 20.0737 149.449 20.182 149.127 20.2686C148.806 20.3551 148.49 20.417 148.181 20.4541L147.17 20.584C146.564 20.6644 146.109 20.7912 145.806 20.9644C145.293 21.255 145.036 21.7189 145.036 22.356ZM149.081 18.979C149.464 18.9295 149.721 18.7687 149.851 18.4966C149.925 18.3481 149.962 18.1348 149.962 17.8564C149.962 17.2874 149.758 16.8761 149.35 16.6226C148.948 16.3628 148.37 16.2329 147.615 16.2329C146.743 16.2329 146.125 16.4679 145.76 16.938C145.556 17.1978 145.423 17.5843 145.361 18.0977H143.802C143.833 16.873 144.229 16.0226 144.99 15.5464C145.757 15.064 146.644 14.8228 147.652 14.8228C148.821 14.8228 149.771 15.0454 150.5 15.4907C151.224 15.936 151.586 16.6287 151.586 17.5688V23.293C151.586 23.4661 151.62 23.6053 151.688 23.7104C151.762 23.8156 151.914 23.8682 152.142 23.8682C152.217 23.8682 152.3 23.8651 152.393 23.8589C152.486 23.8465 152.585 23.8311 152.69 23.8125V25.0464C152.43 25.1206 152.232 25.167 152.096 25.1855C151.96 25.2041 151.774 25.2134 151.539 25.2134C150.964 25.2134 150.547 25.0093 150.287 24.6011C150.151 24.3846 150.055 24.0785 149.999 23.6826C149.659 24.1279 149.171 24.5145 148.534 24.8423C147.897 25.1701 147.195 25.334 146.428 25.334C145.506 25.334 144.752 25.0557 144.164 24.499C143.583 23.9362 143.292 23.2342 143.292 22.3931C143.292 21.4715 143.579 20.7572 144.155 20.25C144.73 19.7428 145.484 19.4305 146.418 19.313L149.081 18.979ZM154.378 11.3716H156.048V25H154.378V11.3716Z" fill="#061742"/>
<path d="M54.5791 32.083H56.9585V40H55.417V34.645C55.417 34.491 55.4188 34.2762 55.4224 34.0005C55.426 33.7212 55.4278 33.5063 55.4278 33.356L53.9292 40H52.3233L50.8355 33.356C50.8355 33.5063 50.8373 33.7212 50.8408 34.0005C50.8444 34.2762 50.8462 34.491 50.8462 34.645V40H49.3047V32.083H51.711L53.1504 38.3081L54.5791 32.083ZM60.6807 35.252C60.3262 35.252 60.0505 35.363 59.8535 35.585C59.6602 35.807 59.5384 36.1077 59.4883 36.4873H61.8677C61.8426 36.0827 61.7191 35.7765 61.4971 35.5688C61.2787 35.3576 61.0065 35.252 60.6807 35.252ZM60.6807 33.9897C61.1677 33.9897 61.6063 34.0811 61.9966 34.2637C62.3869 34.4463 62.7092 34.7345 62.9634 35.1284C63.1926 35.4757 63.3412 35.8786 63.4092 36.3369C63.4486 36.6055 63.4647 36.9922 63.4575 37.4971H59.4507C59.4722 38.0843 59.6566 38.4961 60.0039 38.7324C60.2152 38.8792 60.4694 38.9526 60.7666 38.9526C61.0817 38.9526 61.3378 38.8631 61.5347 38.6841C61.6421 38.5874 61.737 38.4531 61.8194 38.2812H63.3824C63.343 38.6286 63.1621 38.9813 62.8399 39.3394C62.3386 39.9087 61.6367 40.1934 60.7344 40.1934C59.9896 40.1934 59.3325 39.9535 58.7632 39.4736C58.1939 38.9938 57.9092 38.2132 57.9092 37.1318C57.9092 36.1185 58.1652 35.3415 58.6773 34.8008C59.1929 34.2601 59.8607 33.9897 60.6807 33.9897ZM67.7383 34.0059C68.3435 34.0059 68.8376 34.1652 69.2207 34.4839C69.6074 34.799 69.8008 35.3236 69.8008 36.0576V40H68.2324V36.439C68.2324 36.131 68.1913 35.8947 68.1089 35.73C67.9585 35.4292 67.6721 35.2788 67.2495 35.2788C66.7303 35.2788 66.3741 35.499 66.1807 35.9395C66.0804 36.1722 66.0303 36.4694 66.0303 36.8311V40H64.5049V34.1562H65.982V35.0103C66.1789 34.7095 66.3651 34.4928 66.5406 34.3604C66.8557 34.124 67.2549 34.0059 67.7383 34.0059ZM71.2027 32.1099H72.7066V36.3745L74.6133 34.1724H76.5093L74.4629 36.4121L76.5899 40H74.7422L73.3404 37.4971L72.7066 38.1577V40H71.2027V32.1099ZM78.8672 34.1455V37.6743C78.8672 38.0073 78.9066 38.258 78.9854 38.4263C79.125 38.7235 79.399 38.8721 79.8072 38.8721C80.3299 38.8721 80.688 38.6608 80.8814 38.2383C80.9816 38.0091 81.0318 37.7065 81.0318 37.3306V34.1455H82.584V40H81.0962V39.1729C81.0819 39.1908 81.0461 39.2445 80.9888 39.334C80.9315 39.4235 80.8635 39.5023 80.7847 39.5703C80.5448 39.7852 80.312 39.932 80.0865 40.0107C79.8644 40.0895 79.6031 40.1289 79.3023 40.1289C78.4357 40.1289 77.8521 39.8174 77.5513 39.1943C77.383 38.8506 77.2989 38.3439 77.2989 37.6743V34.1455H78.8672ZM85.6294 40H84.0987V32.083H85.6294V40ZM91.919 33.458V38.625H93.4444C94.225 38.625 94.7692 38.2401 95.0772 37.4702C95.2455 37.0477 95.3296 36.5446 95.3296 35.9609C95.3296 35.1553 95.2025 34.5376 94.9483 34.1079C94.6976 33.6746 94.1963 33.458 93.4444 33.458H91.919ZM93.7237 32.083C94.2142 32.0902 94.6224 32.1475 94.9483 32.2549C95.5033 32.4375 95.9527 32.7723 96.2964 33.2593C96.5721 33.6532 96.7601 34.0793 96.8604 34.5376C96.9606 34.9959 97.0108 35.4328 97.0108 35.8481C97.0108 36.9009 96.7995 37.7925 96.377 38.5229C95.8041 39.5076 94.9196 40 93.7237 40H90.313V32.083H93.7237ZM100.448 35.252C100.094 35.252 99.8181 35.363 99.6211 35.585C99.4278 35.807 99.306 36.1077 99.2559 36.4873H101.635C101.61 36.0827 101.487 35.7765 101.265 35.5688C101.046 35.3576 100.774 35.252 100.448 35.252ZM100.448 33.9897C100.935 33.9897 101.374 34.0811 101.764 34.2637C102.154 34.4463 102.477 34.7345 102.731 35.1284C102.96 35.4757 103.109 35.8786 103.177 36.3369C103.216 36.6055 103.232 36.9922 103.225 37.4971H99.2183C99.2398 38.0843 99.4242 38.4961 99.7715 38.7324C99.9828 38.8792 100.237 38.9526 100.534 38.9526C100.849 38.9526 101.105 38.8631 101.302 38.6841C101.41 38.5874 101.505 38.4531 101.587 38.2812H103.15C103.111 38.6286 102.93 38.9813 102.607 39.3394C102.106 39.9087 101.404 40.1934 100.502 40.1934C99.7572 40.1934 99.1001 39.9535 98.5308 39.4736C97.9615 38.9938 97.6768 38.2132 97.6768 37.1318C97.6768 36.1185 97.9328 35.3415 98.4449 34.8008C98.9605 34.2601 99.6283 33.9897 100.448 33.9897ZM106.775 38.7432C107.133 38.7432 107.436 38.6089 107.683 38.3403C107.93 38.0682 108.054 37.6367 108.054 37.0459C108.054 36.4909 107.936 36.0684 107.699 35.7783C107.466 35.4883 107.153 35.3433 106.759 35.3433C106.222 35.3433 105.852 35.5957 105.647 36.1006C105.54 36.3691 105.486 36.7004 105.486 37.0942C105.486 37.4344 105.544 37.737 105.658 38.002C105.866 38.4961 106.238 38.7432 106.775 38.7432ZM106.394 34.0059C106.688 34.0059 106.944 34.0506 107.162 34.1401C107.535 34.2941 107.835 34.577 108.064 34.9888V34.1455H109.552V39.6992C109.552 40.4548 109.425 41.0241 109.171 41.4072C108.734 42.0661 107.896 42.3955 106.657 42.3955C105.909 42.3955 105.298 42.2487 104.826 41.9551C104.353 41.6615 104.092 41.2228 104.042 40.6392H105.707C105.75 40.8182 105.819 40.9471 105.916 41.0259C106.081 41.1655 106.358 41.2354 106.749 41.2354C107.3 41.2354 107.669 41.0509 107.855 40.6821C107.977 40.4458 108.038 40.0483 108.038 39.4897V39.1138C107.891 39.3644 107.733 39.5524 107.565 39.6777C107.261 39.9105 106.865 40.0269 106.378 40.0269C105.626 40.0269 105.024 39.7637 104.573 39.2373C104.126 38.7074 103.902 37.9912 103.902 37.0889C103.902 36.2188 104.119 35.4883 104.552 34.8975C104.985 34.3031 105.599 34.0059 106.394 34.0059ZM108.736 31.75C108.689 32.2979 108.507 32.7025 108.188 32.9639C107.869 33.2217 107.434 33.3506 106.883 33.3506C106.331 33.3506 105.896 33.2217 105.578 32.9639C105.259 32.7025 105.076 32.2979 105.03 31.75H105.755C105.805 32.0794 105.977 32.3032 106.271 32.4214C106.435 32.4894 106.639 32.5234 106.883 32.5234C107.126 32.5234 107.33 32.4894 107.495 32.4214C107.789 32.3032 107.961 32.0794 108.011 31.75H108.736ZM113.296 35.252C112.941 35.252 112.666 35.363 112.469 35.585C112.275 35.807 112.154 36.1077 112.104 36.4873H114.483C114.458 36.0827 114.334 35.7765 114.112 35.5688C113.894 35.3576 113.622 35.252 113.296 35.252ZM113.296 33.9897C113.783 33.9897 114.222 34.0811 114.612 34.2637C115.002 34.4463 115.324 34.7345 115.579 35.1284C115.808 35.4757 115.956 35.8786 116.024 36.3369C116.064 36.6055 116.08 36.9922 116.073 37.4971H112.066C112.087 38.0843 112.272 38.4961 112.619 38.7324C112.83 38.8792 113.085 38.9526 113.382 38.9526C113.697 38.9526 113.953 38.8631 114.15 38.6841C114.257 38.5874 114.352 38.4531 114.435 38.2812H115.998C115.958 38.6286 115.777 38.9813 115.455 39.3394C114.954 39.9087 114.252 40.1934 113.35 40.1934C112.605 40.1934 111.948 39.9535 111.378 39.4736C110.809 38.9938 110.524 38.2132 110.524 37.1318C110.524 36.1185 110.78 35.3415 111.293 34.8008C111.808 34.2601 112.476 33.9897 113.296 33.9897ZM120.289 34.0059C120.318 34.0059 120.341 34.0076 120.359 34.0112C120.38 34.0112 120.425 34.013 120.493 34.0166V35.585C120.397 35.5742 120.311 35.5671 120.235 35.5635C120.16 35.5599 120.099 35.5581 120.053 35.5581C119.437 35.5581 119.023 35.7586 118.812 36.1597C118.694 36.3853 118.635 36.7326 118.635 37.2017V40H117.093V34.1455H118.554V35.166C118.791 34.7757 118.996 34.509 119.172 34.3657C119.458 34.1258 119.831 34.0059 120.289 34.0059ZM122.959 40H121.428V32.083H122.959V40ZM126.767 35.252C126.412 35.252 126.136 35.363 125.939 35.585C125.746 35.807 125.624 36.1077 125.574 36.4873H127.954C127.929 36.0827 127.805 35.7765 127.583 35.5688C127.365 35.3576 127.092 35.252 126.767 35.252ZM126.767 33.9897C127.254 33.9897 127.692 34.0811 128.083 34.2637C128.473 34.4463 128.795 34.7345 129.049 35.1284C129.279 35.4757 129.427 35.8786 129.495 36.3369C129.535 36.6055 129.551 36.9922 129.543 37.4971H125.537C125.558 38.0843 125.743 38.4961 126.09 38.7324C126.301 38.8792 126.555 38.9526 126.853 38.9526C127.168 38.9526 127.424 38.8631 127.621 38.6841C127.728 38.5874 127.823 38.4531 127.905 38.2812H129.468C129.429 38.6286 129.248 38.9813 128.926 39.3394C128.425 39.9087 127.723 40.1934 126.82 40.1934C126.076 40.1934 125.418 39.9535 124.849 39.4736C124.28 38.9938 123.995 38.2132 123.995 37.1318C123.995 36.1185 124.251 35.3415 124.763 34.8008C125.279 34.2601 125.947 33.9897 126.767 33.9897ZM133.76 34.0059C133.788 34.0059 133.812 34.0076 133.83 34.0112C133.851 34.0112 133.896 34.013 133.964 34.0166V35.585C133.867 35.5742 133.781 35.5671 133.706 35.5635C133.631 35.5599 133.57 35.5581 133.523 35.5581C132.908 35.5581 132.494 35.7586 132.283 36.1597C132.165 36.3853 132.105 36.7326 132.105 37.2017V40H130.564V34.1455H132.025V35.166C132.261 34.7757 132.467 34.509 132.643 34.3657C132.929 34.1258 133.301 34.0059 133.76 34.0059ZM139.808 37.0083H141.816L140.828 33.8931L139.808 37.0083ZM139.91 32.083H141.779L144.583 40H142.789L142.278 38.3726H139.362L138.814 40H137.085L139.91 32.083ZM145.442 38.3994H147.069V40H145.442V38.3994ZM149.852 37.5562C149.902 37.9178 150 38.1882 150.147 38.3672C150.416 38.693 150.876 38.856 151.527 38.856C151.918 38.856 152.235 38.813 152.478 38.7271C152.94 38.5623 153.171 38.2562 153.171 37.8086C153.171 37.5472 153.056 37.3467 152.827 37.207C152.598 37.0638 152.238 36.9385 151.748 36.8311L150.91 36.6431C150.086 36.4569 149.517 36.2546 149.202 36.0361C148.668 35.6709 148.401 35.0998 148.401 34.3228C148.401 33.6138 148.659 33.0247 149.175 32.5557C149.69 32.0866 150.448 31.8521 151.447 31.8521C152.281 31.8521 152.992 32.0741 153.579 32.5181C154.17 32.9585 154.48 33.5994 154.508 34.4409H152.918C152.89 33.9647 152.682 33.6263 152.295 33.4258C152.038 33.2933 151.717 33.2271 151.334 33.2271C150.908 33.2271 150.568 33.313 150.314 33.4849C150.059 33.6567 149.932 33.8966 149.932 34.2046C149.932 34.4875 150.057 34.6987 150.308 34.8384C150.469 34.9315 150.813 35.0407 151.339 35.166L152.704 35.4937C153.302 35.6369 153.753 35.8285 154.057 36.0684C154.53 36.4408 154.766 36.9797 154.766 37.6851C154.766 38.4084 154.489 39.0099 153.934 39.4897C153.382 39.966 152.611 40.2041 151.619 40.2041L151.286 40.7036C151.404 40.6785 151.488 40.6606 151.538 40.6499C151.588 40.6427 151.642 40.6392 151.699 40.6392C151.989 40.6392 152.22 40.709 152.392 40.8486C152.564 40.9919 152.65 41.196 152.65 41.4609C152.65 41.7904 152.516 42.05 152.247 42.2397C151.979 42.4331 151.633 42.5298 151.21 42.5298C151.028 42.5298 150.808 42.4922 150.55 42.417C150.432 42.3812 150.265 42.3239 150.05 42.2451L150.254 41.7832C150.459 41.8441 150.598 41.8835 150.673 41.9014C150.845 41.9443 150.985 41.9658 151.092 41.9658C151.307 41.9658 151.461 41.9193 151.554 41.8262C151.647 41.7367 151.694 41.6418 151.694 41.5415C151.694 41.3911 151.642 41.2855 151.538 41.2246C151.434 41.1637 151.323 41.1333 151.205 41.1333C151.137 41.1333 151.067 41.1405 150.996 41.1548C150.924 41.1727 150.843 41.196 150.754 41.2246L150.523 41.0098L151.055 40.2041C150.382 40.2041 149.75 39.9696 149.159 39.5005C148.568 39.0278 148.272 38.3797 148.272 37.5562H149.852ZM155.84 38.3994H157.468V40H155.84V38.3994Z" fill="#061742"/>
</svg>